<?xml version="1.0" encoding="UTF-8" standalone="no"?>
<svg
   xmlns:dc="http://purl.org/dc/elements/1.1/"
   xmlns:cc="http://creativecommons.org/ns#"
   xmlns:rdf="http://www.w3.org/1999/02/22-rdf-syntax-ns#"
   xmlns:svg="http://www.w3.org/2000/svg"
   xmlns="http://www.w3.org/2000/svg"
   xmlns:sodipodi="http://sodipodi.sourceforge.net/DTD/sodipodi-0.dtd"
   xmlns:inkscape="http://www.inkscape.org/namespaces/inkscape"
   version="1.1"
   x="0px"
   y="0px"
   viewBox="0 0 95.142 78.127"
   enable-background="new 0 0 100 100"
   xml:space="preserve"
   id="svg2985"
   inkscape:version="0.48.5 r10040"
   width="100%"
   height="100%"
   sodipodi:docname="red_green_noun_14730_cc.svg"><metadata
     id="metadata3019"><rdf:RDF><cc:Work
         rdf:about=""><dc:format>image/svg+xml</dc:format><dc:type
           rdf:resource="http://purl.org/dc/dcmitype/StillImage" /><dc:title /></cc:Work></rdf:RDF></metadata><defs
     id="defs3017" /><sodipodi:namedview
     pagecolor="#ffffff"
     bordercolor="#666666"
     borderopacity="1"
     objecttolerance="10"
     gridtolerance="10"
     guidetolerance="10"
     inkscape:pageopacity="0"
     inkscape:pageshadow="2"
     inkscape:window-width="1702"
     inkscape:window-height="1122"
     id="namedview3015"
     showgrid="false"
     inkscape:zoom="1.888"
     inkscape:cx="48.142"
     inkscape:cy="25.627"
     inkscape:window-x="0"
     inkscape:window-y="0"
     inkscape:window-maximized="0"
     inkscape:current-layer="svg2985"
     fit-margin-top="0"
     fit-margin-left="0"
     fit-margin-right="0"
     fit-margin-bottom="0" /><g
     id="g2987"
     inkscape:export-filename="/Users/imac/Documents/troy/web_dev/passphrase_dice_roller/icon16.png"
     inkscape:export-xdpi="15.14"
     inkscape:export-ydpi="15.14"
     transform="translate(-1.858,-10)"><g
       id="g2989"><g
         id="g2991"><path
           d="M 26.53,11.559 1.858,23.755 21.425,23.045 45.955,10 26.53,11.559 z m -2.351,6.292 c -1.714,0.655 -3.201,0.929 -3.322,0.613 -0.122,-0.318 1.169,-1.105 2.882,-1.761 1.713,-0.655 3.201,-0.929 3.322,-0.612 0.122,0.317 -1.169,1.105 -2.882,1.76 z"
           id="path2993"
           style="fill:#008000"
           inkscape:connector-curvature="0" /></g><g
         id="g2995"><path
           d="M 20.576,24.037 2.284,24.747 13.344,54.24 31.635,56.65 20.576,24.037 z M 9.602,34.523 C 8.656,34.9 7.321,33.781 6.621,32.023 5.922,30.265 6.12,28.534 7.065,28.157 c 0.946,-0.377 2.28,0.742 2.981,2.5 0.7,1.758 0.501,3.489 -0.444,3.866 z m 6.464,17.039 c -0.953,0.358 -2.267,-0.785 -2.935,-2.556 -0.669,-1.771 -0.438,-3.497 0.514,-3.856 0.953,-0.36 2.266,0.784 2.935,2.555 0.669,1.769 0.439,3.496 -0.514,3.857 z M 20.46,34.79 c -1.063,0.406 -2.527,-0.84 -3.268,-2.784 -0.739,-1.944 -0.478,-3.848 0.586,-4.252 1.065,-0.407 2.528,0.84 3.268,2.783 0.742,1.943 0.479,3.848 -0.586,4.253 z m 6.115,18.433 c -1.039,0.346 -2.405,-0.952 -3.05,-2.896 -0.646,-1.943 -0.327,-3.801 0.711,-4.146 1.039,-0.346 2.406,0.952 3.051,2.896 0.646,1.944 0.327,3.8 -0.712,4.146 z"
           id="path2997"
           style="fill:#008000"
           inkscape:connector-curvature="0" /></g><g
         id="g2999"><path
           d="M 81.827,55.799 70.343,88.127 86.507,76.781 97,48 81.827,55.799 z m -4.574,23.354 c -1.008,1.819 -2.241,3.064 -2.756,2.775 -0.513,-0.282 -0.112,-1.986 0.895,-3.805 1.009,-1.816 2.242,-3.061 2.756,-2.775 0.514,0.286 0.113,1.99 -0.895,3.805 z m 8.081,-11.922 c -0.967,1.745 -2.169,2.932 -2.683,2.646 -0.515,-0.286 -0.146,-1.931 0.823,-3.679 0.968,-1.745 2.169,-2.932 2.682,-2.646 0.514,0.287 0.147,1.931 -0.822,3.679 z m 4.761,-8.789 c -0.513,-0.284 -0.145,-1.933 0.823,-3.679 0.969,-1.746 2.169,-2.932 2.683,-2.646 0.514,0.284 0.146,1.931 -0.822,3.678 -0.968,1.746 -2.17,2.933 -2.684,2.647 z"
           id="path3001"
           style="fill:#ff0000"
           inkscape:connector-curvature="0" /></g><g
         id="g3003"><path
           d="M 50.209,36.09 55.217,34.227 47.09,10.283 21.993,24.037 32.769,56.649 44.64,49.254 49.784,36.656 50.209,36.09 z M 35.627,50.458 c -1.736,0 -3.143,-1.756 -3.143,-3.923 0,-2.166 1.407,-3.923 3.143,-3.923 1.736,0 3.144,1.757 3.144,3.923 0,2.167 -1.408,3.923 -3.144,3.923 z m 8.84,-27.13 c -1.684,0 -3.049,-1.649 -3.049,-3.685 0,-2.035 1.365,-3.685 3.049,-3.685 1.684,0 3.048,1.65 3.048,3.685 0,2.036 -1.365,3.685 -3.048,3.685 z"
           id="path3005"
           style="fill:#008000"
           inkscape:connector-curvature="0" /><path
           d="M 51.484,38.642 38.865,69.551 69.493,88.127 80.976,55.231 51.484,38.642 z m -4.206,32.471 c -1.906,0 -3.45,-1.668 -3.45,-3.723 0,-2.057 1.543,-3.723 3.45,-3.723 1.907,0 3.45,1.666 3.45,3.723 10e-4,2.055 -1.543,3.723 -3.45,3.723 z m 3.261,-22.415 c 0,-0.025 0.004,-0.051 0.004,-0.075 0.035,-2.163 1.628,-3.907 3.588,-3.907 0.66,0 1.277,0.201 1.809,0.546 1.066,0.691 1.784,1.969 1.784,3.437 0,2.199 -1.608,3.981 -3.593,3.981 -1.984,0 -3.592,-1.783 -3.592,-3.982 z m 5.342,14.366 c 0,-2.197 1.607,-3.981 3.592,-3.981 1.985,0 3.592,1.784 3.592,3.981 0,2.201 -1.607,3.982 -3.592,3.982 -1.985,0 -3.592,-1.78 -3.592,-3.982 z m 9.404,18.588 c -2.062,0 -3.733,-1.783 -3.733,-3.981 0,-2.199 1.671,-3.982 3.733,-3.982 2.063,0 3.734,1.783 3.734,3.982 10e-4,2.198 -1.67,3.981 -3.734,3.981 z m 6.948,-18.953 c -1.983,0 -3.592,-1.782 -3.592,-3.98 0,-2.2 1.608,-3.983 3.592,-3.983 1.984,0 3.592,1.783 3.592,3.983 0,2.198 -1.608,3.98 -3.592,3.98 z"
           id="path3007"
           style="fill:#ff0000"
           inkscape:connector-curvature="0" /><path
           d="M 68.499,31.907 51.91,38.074 81.827,54.663 97,47.007 68.499,31.907 z m -3.857,9.661 c -0.261,0.682 -2.015,0.646 -3.916,-0.083 -1.104,-0.423 -2.014,-0.986 -2.531,-1.518 l -0.438,-1.036 c 0.013,-0.035 0.033,-0.065 0.054,-0.096 0.387,-0.581 2.056,-0.514 3.861,0.178 1.901,0.728 3.23,1.872 2.97,2.555 z m 9.122,4.773 c -0.262,0.683 -2.016,0.646 -3.917,-0.082 -1.901,-0.728 -3.229,-1.872 -2.968,-2.554 0.261,-0.683 2.015,-0.646 3.915,0.082 1.901,0.728 3.231,1.872 2.97,2.554 z M 74.33,37.74 c -0.26,0.682 -2.015,0.645 -3.915,-0.083 -1.901,-0.728 -3.231,-1.871 -2.97,-2.554 0.262,-0.682 2.013,-0.645 3.916,0.083 1.901,0.728 3.23,1.87 2.969,2.554 z m 8.225,13.28 c -0.262,0.683 -2.015,0.647 -3.916,-0.081 -1.901,-0.728 -3.229,-1.871 -2.971,-2.554 0.262,-0.684 2.016,-0.646 3.917,0.082 1.901,0.728 3.231,1.87 2.97,2.553 z m 0.047,-8.791 c -0.262,0.682 -2.013,0.646 -3.916,-0.083 -1.902,-0.727 -3.229,-1.871 -2.969,-2.554 0.26,-0.682 2.014,-0.646 3.915,0.083 1.901,0.729 3.231,1.871 2.97,2.554 z m 4.637,4.266 c -1.9,-0.728 -3.229,-1.871 -2.969,-2.553 0.262,-0.684 2.016,-0.646 3.917,0.082 1.901,0.728 3.229,1.872 2.97,2.554 -0.262,0.682 -2.016,0.646 -3.918,-0.083 z"
           id="path3009"
           style="fill:#ff0000"
           inkscape:connector-curvature="0" /></g></g></g></svg>