<svg xmlns:svg="http://www.w3.org/2000/svg" xmlns="http://www.w3.org/2000/svg" id="svg3090" version="1.1" width="1024" height="1024"><metadata id="metadata3096"/><defs id="defs3094"/><image width="1024" height="1024" id="image3098" x="0" y="0"/><g id="g3116"><path d="M255 998.3C229.5 995.8 213.9 992.9 196.6 987.3 104 957.4 39 878.9 26.8 782c-1.9-15.5-1.9-524.5 0-540C41 129.6 124.3 44.8 238 27.2 253.8 24.8 754.9 24.1 779.3 26.5 901.1 38.4 993.6 134.6 1001 257c1.3 22.3 1.3 487.7 0 510-7.4 122.1-99.6 218.3-221 230.5-14 1.4-511.2 2.2-525 0.9zM211 866.2C213.1 864.5 213 861 210.9 861c-0.5 0-1.9-1-3.1-2.2-1.2-1.2-3.1-2.7-4.2-3.3-1.1-0.6-2.5-2.6-3-4.6C199 845.5 197 847.1 197 853.6c0 10.7 7.7 17.7 14 12.6zm16.4-23.7c-1.6-5.1-2.4-6.6-3.4-6.1-1.3 0.8-1.3 5.6 0.1 9.2 1 2.7 1.1 2.7 2.5 0.9 0.8-1.1 1.2-2.8 0.8-4z" id="path3130" fill="#fcf5d9"/><path d="M245 996.4C129.2 983.9 39.7 893.9 27.5 777.7c-2.3-22.1-2.3-509.3 0-531.4C39.8 129.5 129.5 39.8 246.3 27.5 267.9 25.3 759.1 25.2 780.5 27.5 900.4 40.2 991 133.7 1000 254c1.4 18.4 1.4 497.6 0 516C991 890.3 900.4 983.8 780.5 996.5 760.5 998.6 264.5 998.5 245 996.4zM773.1 966C868.5 956.3 949.1 886.2 971.9 793 978.9 764 978.5 779.6 978.5 548l0-208.5-249.5-0.3c-137.2-0.2-250.4 0-251.6 0.2-1.1 0.3-3.3 2.6-4.8 5.3-1.5 2.6-4.8 8.3-7.4 12.5-2.6 4.3-6.9 11.5-9.6 16-2.7 4.5-5.7 9.3-6.7 10.7-1 1.3-1.9 3.2-1.9 4.3 0 1-0.7 2.1-1.5 2.5-0.8 0.3-1.9 2.1-2.5 3.9-0.6 1.8-1.7 3.6-2.5 3.8-0.7 0.3-1.7 1.9-2 3.6-0.4 1.7-1.1 3.1-1.6 3.1-0.5 0-1.5 1.2-2.2 2.8-0.7 1.5-2.6 4.8-4.3 7.3-1.7 2.5-4.6 7.2-6.4 10.5-1.8 3.3-3.9 6.7-4.5 7.5-1.1 1.3-2.6 3.9-8.6 15-0.9 1.6-2.2 3.7-2.9 4.5-1.5 1.8-4.4 6.9-6.2 10.8-0.7 1.5-1.6 2.8-2.1 2.8-0.5 0-1.5 1.5-2.3 3.3-0.8 1.8-2.6 5.1-3.9 7.3-1.3 2.2-2.8 5-3.4 6.1-0.5 1.2-2.8 4.8-5 8-2.2 3.2-4.1 6.4-4.1 7 0 0.6-0.7 1.7-1.6 2.4-0.9 0.7-2.2 2.7-3 4.4-0.8 1.7-2.3 4.4-3.4 6.1-2.6 3.9-5.3 8.5-9.8 16.5-2 3.6-4.4 7.6-5.3 9-0.9 1.4-4.9 8-9 14.8-4.1 6.8-8.1 13.4-8.9 14.7-0.8 1.3-5.7 9.5-10.9 18.2-5.2 8.7-10.1 16.9-11.1 18.3-0.9 1.4-3.4 5.4-5.4 9-2 3.6-8.3 13.9-13.8 23-11.9 19.4-14.3 23.4-16.2 27.6-0.8 1.7-2.1 3.7-3 4.4-0.9 0.7-1.6 1.8-1.6 2.4 0 0.6-1.8 3.7-4 6.9-2.2 3.2-4 5.9-4 6.2 0 0.2-3.1 5.6-7 11.9-3.8 6.3-7 11.8-7 12.1 0 0.3 52.2 0.6 115.9 0.6 79.5 0 116.1 0.3 116.6 1 2.5 4.1 9.3 4-216.3 4l-214.5 0 0.6 24.8C59.1 769.6 62.2 788 71.5 815 99.7 896 175.4 956.1 261.5 965.8c11.7 1.3 498.6 1.4 511.6 0.1zM247.6 890.8C243.4 884.8 246.8 879 254.5 879c4.2 0 5.7-0.4 6.7-1.9 2.4-3.5 8.4-6.4 10.7-5.2 2.7 1.4 3.1 1.4 3.1-0.7 0-1 0.9-3.7 2-6 1.6-3.4 1.7-4.8 0.9-7-0.6-1.5-1.4-7-1.8-12.2-1.2-15.1-7.3-26.9-16.2-31.6-6.7-3.5-24.7-1.3-28.6 3.5-8.9 10.8-12.2 21-10.1 30.5 1.9 8.7-0.6 15.9-4.6 13-0.7-0.5-3.9-2.7-7.1-4.8-7.7-5.1-7.3-4.3-7.4-17.6 0-13.4 1.6-17.6 10.7-28.3 14.6-16.8 34.9-19.8 60.8-8.7 3.9 1.7 12.4 10.3 12.4 12.6 0 0.6 0.7 1.7 1.5 2.4 3.6 3 5.7 10.3 6.2 21.8l0.5 11.3-4.7 6.9c-3.5 5.1-4.6 7.4-4.1 9 1.7 5.5-3.3 16.1-7 14.6-0.8-0.3-2.1-0.9-3-1.2-0.9-0.4-1.5 0-1.5 0.9 0 3.2-5 7.7-8.5 7.7-2.3 0-4.2 0.8-5.9 2.5-3.4 3.4-9.8 3.5-12 0.3zm282.2 0.7C525.9 889.4 525 887.1 525 879.7c0-4.9 0.5-7 1.9-8.8l1.9-2.4 2.8 2.1c5.8 4.2 8.3 15.1 4.8 20.2-1.8 2.6-2.9 2.7-6.7 0.7zm291.5-0.1c-4.7-0.9-6.8-7.7-3.7-12.1 1.8-2.5 10-3.2 12.2-1 0.9 0.9 1.8 0.9 3.7 0 6.8-3.1 12.5-0.4 12.5 6 0 6-8.6 10.3-12.9 6.4-1.7-1.5-2.1-1.5-4.7-0.1-3 1.5-3.2 1.6-7.1 0.8zM597.2 889.8c-1.6-1.6-1.5-10.6 0.1-13.8 1.8-3.5 5-3.8 6.5-0.5 3.7 8.1-1.5 19.4-6.6 14.3zm124.2-0.2c-2.8-2-3.2-13.3-0.7-16.5 4.8-5.9 9.4 4.4 6.2 13.7-1.3 3.7-3.1 4.6-5.5 2.8zm80.8-0.6c-1.2-0.5-3.2-2.4-4.3-4.3-1.1-1.9-3.1-3.9-4.4-4.5-1.3-0.6-3.4-2.9-4.5-5-1.1-2.2-3.3-5.3-5-6.9-1.8-1.8-3.2-4.4-3.6-6.9-0.3-2.1-1.3-7.4-2.3-11.7-1.3-6.2-1.4-8.7-0.6-12 0.6-2.3 0.9-5.5 0.6-7.2-1.7-10.9 13.2-28.4 29.2-34.2 12.5-4.5 34.6 3.1 40.2 13.9C851.2 817.1 846.9 829.5 841 829.5l-3.5 0-0.5-5.4c-0.5-5.3-0.7-5.5-5.5-8.5-13-8-31.5-0.2-33 14l-0.7 6.1 8.5 0.7c5.4 0.4 9.7 0.2 11.7-0.5 2-0.7 5.2-0.8 8.4-0.4 2.9 0.4 8.9 0.8 13.5 0.9 6.9 0.1 8.6 0.5 9.8 2.1 2 2.7 1.8 8.9-0.4 10.7-2.2 1.9-19.3 3.5-39.4 3.7-20.5 0.1-24.3 2.3-16.2 9.4 2 1.7 4.5 4.9 5.5 7 1.1 2.2 3.1 4.2 4.7 4.8 6.2 2.4 8.9 8.6 5.8 13.4-1.7 2.6-3.6 3-7.4 1.5zm-574.9-3.3c-8.7-4.4-12-10.5-8.9-16.5 1.9-3.7 4.2-4 8-1.1 1.5 1.2 4.6 3.1 6.9 4.3 4.9 2.6 7 5.9 6.2 10-1.1 6.1-4.7 7-12.2 3.2zm121.2-1.5c-2.5-2.8-3.2-11.8-1.1-16.1 3.4-7.3 5.3-10.3 6.9-11.2 2.8-1.6 0.9-2.8-4.3-2.8-6.3 0-6.8-0.7-7.4-12.5-0.3-5.5-0.9-13.9-1.2-18.7l-0.6-8.7-3.2 0c-8.9 0-11.6-2.2-11.6-9.7 0-5.9 0.7-6.4 9.5-6.9l5-0.3 0.6-8.3c0.7-9.4 1.8-13.6 5.4-19.3 1.4-2.2 2.8-4.8 3.1-5.7 0.3-1 1-1.7 1.5-1.7 0.5 0 2.4-1.3 4.2-3 7.4-6.5 17.2-8.8 29.9-7 10.6 1.5 11.2 2 10.5 8.7-0.8 7.4-1.6 8.1-8.5 7.5-6.9-0.6-15.9 1.8-20.2 5.3-3.2 2.7-3.6 4.2-4.5 16.8l-0.6 7.9 11.8-0.5C388.3 797.1 389 797.4 389 804.4 389 813 388.2 813.5 374.3 813.5l-11.8 0-0.8 7c-0.4 3.9-0.9 15.9-1 26.7-0.3 18.1-0.4 20-2.3 22.5-1.1 1.5-2.4 4.6-2.8 6.8-1.5 8.5-3.9 11.1-7 7.6zm88.7-0.8c-2.7-4.1-2.4-13.7 0.5-18.4 3-4.8 2.2-9.3-1.8-10.7-3.1-1.1-3.2-2.1-4.9-28.5l-0.6-9.9-3.2-0.4c-8.3-0.9-11.9-4.4-12.2-12-0.1-4.2 1.8-5.5 8.6-5.7 7.1-0.2 7.3-0.4 7.3-9.4 0-4.6 0.7-9 1.9-12.2C434.8 770.9 440.9 761 442 761c0.4 0 2.4-1.4 4.6-3.1 7.7-6.1 14.6-7.5 28.1-5.8 10.5 1.3 11.8 2.4 10.7 8.7-1.2 6.7-1.8 7.2-8.7 7.3-6.8 0-13.4 1.6-18.4 4.3-3.9 2.1-6 8.5-6.1 19.1l-0.1 6.9 11.4-0.6c14.7-0.7 16 0 15.3 8.1-0.6 7.7-1.5 8.2-15.2 7.5l-11.3-0.6-0.7 7.8C451.3 824.8 451 830.2 451 832.5c0 2.3-0.6 5.7-1.4 7.6-1.1 2.6-1.2 5.3-0.5 11.9 1.1 10 0.5 15.1-2.1 18.8-1 1.5-2.2 4.7-2.5 7.2-1.1 7.5-4.3 9.8-7.3 5.3zM659.2 878.3c-1.8-3.5-2.1-8.7-1-14.9 1.1-6.1 1.1-6.5-1.2-8.9-2.4-2.6-2.4-2.7-2.7-28.3-0.4-28.4-0.7-27.1 6.3-28.8 7.7-1.8 14.5 0.9 14.5 5.8 0 3.4 0.6 3.6 3.4 0.9 1.1-1.1 5.2-3.6 9.1-5.6 14.6-7.6 35-1.1 42.5 13.6 6.6 12.9 6.1 49.9-0.7 52.5-2.2 0.8-4.1-1.2-5.2-5.4-0.7-2.5-1.9-4.1-3.6-4.9-2.1-1-2.5-1.7-2.1-3.9 0.3-1.5-0.3-5.4-1.4-8.7-1-3.3-1.9-7.7-1.9-9.8 0-5.4-2.1-9.6-7.4-14.7-4.5-4.4-4.7-4.5-11.4-4.5C681.8 812.6 672 822.3 672 836.6c0 1.5-0.5 4.3-1.2 6.1-0.9 2.4-0.9 3.9-0.2 5.1 0.6 0.9 1 7 1 13.4l-0.1 11.7-3.4 3.6c-3.7 3.9-7.4 4.6-8.9 1.8zm-140.2-17c-0.6-1.5-1.5-4.1-2.2-5.7-0.6-1.6-1.3-5-1.4-7.5-0.1-2.5-0.7-11.3-1.2-19.6-1.5-22.5-1.5-70.7 0.1-72.8 1.6-2.2 13-3.4 17-1.8l2.8 1.1-0.1 37.3c-0.2 56-0.5 60.7-3.9 61.9-2 0.7-2.9 1.9-3.4 4.1-1.2 6.2-5.8 8-7.7 3zm75.5 1c-2.7-1.9-5.6-10.2-4.9-14.4 0.4-2.9 0.1-5.5-0.9-8-2-4.9-2.3-39-0.3-40.5 2.6-2 9.7-3.1 13.5-2.1 6.7 1.8 6.5 0.7 5.8 27.6-0.6 24.7-1 27-4.7 29.5-1.1 0.8-2.8 2.9-3.7 4.7-1.8 3.5-3 4.3-4.7 3.1zm-2.9-81.4c-9.9-7.8-5.4-22.2 6.9-22.3 5.5-0.1 5.9 0.1 9.2 3.9C614.7 770.6 609.1 783 598.5 783c-2.8 0-5.1-0.7-7-2.2zM483.4 661.1c-13.3-4.8-22.1-15.4-27.1-32.9-1.4-4.7-1.8-12.5-2.2-43.8l-0.6-38-8.8-0.3C434.4 545.9 433.6 545.2 432.6 535.4 431.7 526.7 432.5 526 444.5 526l9.4 0 0.3-14.7 0.3-14.7 11.4-0.3c7.2-0.2 11.8 0.1 12.5 0.8 0.6 0.6 1.3 7 1.6 14.8l0.5 13.7 16.9 0.3c10.4 0.2 17.4 0.7 18.3 1.4 2.4 2 1 16.2-1.9 18-0.7 0.5-8.6 0.8-17.6 0.9L480 546l0 36.3c0 40.6 0.8 46.8 6.6 52.9 5.9 6.2 12 7.1 25.2 3.7 4.5-1.1 8.9-1.8 9.7-1.5 1.9 0.7 2.1 17.4 0.2 20-3.7 5-28.1 7.4-38.3 3.7zm100.5-0.5c-20.6-7.1-37.5-26.4-43-48.7-9-36.9 2.2-67.3 29.8-81.1l10.7-5.3 18 0c16.9 0 18.4 0.2 24 2.5 29.7 12.3 43 41.6 35.9 79.1-7.6 39.9-42.8 64.9-75.4 53.6zm27.6-22.2c17.7-8.1 27-32.4 23.4-61.4-4.4-35.7-45.8-46-65.3-16.3-5.3 8-6.6 20.4-4.6 41.6 2.8 28.3 25.4 45.9 46.6 36.2zm109 22.1c-23.6-9.9-37.1-31.8-39.6-64.4-2.4-31 9-55.3 31.3-66.9L719.5 525.5l16 0c18.7 0 21.3 0.9 31.8 11 3.6 3.5 5.9 5.1 6.2 4.3 0.3-0.7 0.6-16.6 0.7-35.3l0.3-34 12 0 12 0 0.3 92.4c0.2 67.4 0 92.8-0.9 93.8-1.5 1.8-20.9 1.9-22.7 0.2-0.7-0.7-1.2-4.4-1.2-9.4 0-10-0.7-10.7-5-4.8-12.3 17.1-31.8 23.9-48.5 17zm32-22.6C763.4 632.8 772 618 772 604.6c0-2.2 0.4-5.4 0.9-7.1 1.9-6.8-0.4-27.7-3.9-35.4-12.5-27.1-50.3-24.3-60.3 4.5-3.3 9.5-2.7 38.8 1.1 50.5 6.6 20.3 25.1 29.4 42.8 21zM866 660.2C847 653.3 829.5 633.6 824.5 613.5c-9.6-38.7 1-68.6 29.3-82.7l10.7-5.3 16.4-0.4c14.9-0.3 17-0.1 23 1.9 30.7 10.3 46.1 42.2 38.8 80-7.9 40.6-43.3 65.2-76.6 53.2zM895.5 638.1c14.1-6.9 20.2-17.6 22.6-39.4 2.3-21.1-0.7-34.1-10.2-44.2-20.7-21.9-55.3-9.9-60 20.8-1.4 8.8 0.2 32.9 2.6 39.6 7.7 21.4 27.7 31.7 45 23.2zm-667.1 67c0.3-0.5-0.5-2.2-1.7-3.7-2.5-3.1-6.4-14.7-8.7-26.3-0.5-2.5-1.4-6.3-2-8.5-0.6-2.2-1.5-5.6-1.9-7.5-0.4-1.9-1.2-4.6-1.8-6-1.8-4.4-3-9.3-4.2-16.5-0.6-3.8-1.8-8.6-2.5-10.5-0.7-1.9-1.8-5.4-2.4-7.7-2.7-10.6-3.4-12.9-4.1-15.2-0.4-1.4-1.1-4.3-1.5-6.5-0.6-3.7-2-9-4.6-17.2-0.6-1.8-1.4-5.4-1.9-8-0.8-4.3-3.4-14.6-4.6-18.1-0.6-1.9-3.5-0.2-12.5 7.5-4.1 3.5-10.6 9.1-14.5 12.3-8.9 7.6-12.8 8.9-19 6.5-12-4.6-14-20-3.8-28.4 9.3-7.7 21.7-17.9 31.8-26.5 6.1-5.1 11.8-9.7 12.7-10.2 0.9-0.5 3.9-3 6.5-5.5 10.8-10.2 22.8-15 29-11.6 5.1 2.8 10 8.6 11.2 13.4 0.7 2.6 1.7 6.2 2.1 7.8 0.5 1.7 1.7 6 2.8 9.6 1.1 3.6 2.2 8.8 2.6 11.5 0.4 2.7 1.2 5.8 1.8 6.9 0.6 1.1 1.4 3.6 1.8 5.5 0.4 1.9 1.3 5.3 1.9 7.5 1.2 4.1 1.7 6.3 4.5 17.5 0.9 3.6 2 8.1 2.5 10 0.5 1.9 1.7 6.4 2.6 10 0.9 3.6 2.3 8 3 9.8 0.8 1.8 1.4 4.4 1.4 5.7 0 1.4 0.9 5.1 1.9 8.2 1.1 3.2 2.2 7.4 2.5 9.5 0.3 2.1 1 3.8 1.5 3.8 1.6 0 4-3.1 4-5.1 0-1.1 0.5-1.9 1.1-1.9 0.6 0 1.7-1.5 2.5-3.4 0.8-1.9 1.9-3.7 2.5-4.1 0.6-0.4 1.7-2.1 2.6-3.8 2-4.2 4.3-8.2 8-13.7 1.6-2.5 3.5-5.6 4.2-7 0.7-1.4 2.3-4.2 3.5-6.2 1.2-2.1 4.7-7.9 7.7-13 3-5.1 6.2-10.4 7.1-11.8 0.9-1.4 5.4-8.8 9.9-16.5 4.5-7.7 9.8-16.4 11.7-19.2 1.9-2.9 3.9-6.6 4.5-8.2 0.6-1.7 1.4-3 1.9-3 0.5 0 1.4-1.6 2.1-3.5 0.7-1.9 1.6-3.5 2.1-3.5 0.5 0 1.5-1.5 2.4-3.2 0.8-1.8 2.6-5 3.9-7.2 1.3-2.2 2.8-5 3.4-6.1 0.5-1.2 2.8-4.8 5-8 2.2-3.2 4.1-6.3 4.1-6.9 0-0.6 0.9-1.9 2-2.9 1.1-1 2-2.2 2-2.7 0-0.8 13.6-24.2 18.5-31.8 5.6-8.7 17.6-29.2 18.5-31.5 0.5-1.4 1.4-2.5 1.9-2.5 0.5 0 1.4-1.2 2.1-2.7 1.6-3.8 4.6-9 6.3-11.1 0.8-0.9 2-2.8 2.6-4.2 0.7-1.4 2.3-4.3 3.7-6.5 1.3-2.2 2.9-5 3.4-6.2 0.5-1.2 1.4-2.5 2-2.8 0.6-0.4 1.7-2.1 2.6-3.8 2-4.4 7.4-13.9 8.9-15.7C431.4 351.6 437 341.4 437 340.1c0-0.8-49-1.1-189.2-0.9L58.5 339.5 58.2 522.8 58 706l84.9 0c50.3 0 85.2-0.4 85.5-0.9zM447.5 323.8c3.3-5.6 7.7-12.7 9.7-15.7 2-3.1 3.7-6.3 3.8-7.2 0-0.9 0.9-2.4 2-3.4 1.1-1 2-2.4 2-3.1 0-0.7 0.9-2.1 1.9-3.1 1.1-1 2.2-3 2.6-4.5 0.4-1.5 1.1-2.7 1.6-2.7 0.5 0 1.6-1.5 2.5-3.2 0.8-1.8 2.6-5 3.9-7.2 1.3-2.2 2.8-5 3.4-6.2 0.5-1.2 2.6-4.5 4.6-7.3 2-2.8 4-6.1 4.6-7.3 3-6.7 10.5-13.9 18.9-18.2 11.8-6.1 38.9-2.5 34.5 4.5-0.6 0.9-2 7.7-4.6 21.9-1.4 7.4-1.4 7.4-8 6.7-9.7-1-12.4 0.8-19.9 13.9-5 8.6-16.7 27.8-21 34.5C486 322.1 480 332.6 480 333.2 480 333.6 592.3 334 729.6 334l249.6 0-0.5-37.2c-0.9-61.3-8.4-92.8-31.6-132.6l-4.2-7.1-424.5 0-424.5 0-3 4.8c-9.7 15.5-20.3 41.1-25.5 61.8-6 23.6-6.7 31.2-7.2 72.8L57.8 334 249.6 334 441.5 334l6-10.1zM938 150.9C938 149.5 935.1 145.4 927.6 136 892.3 91.9 842 63.3 782.5 53.3 765.4 50.5 271.6 50.5 254.5 53.3 201.5 62.2 157.9 84.5 123 120.6 112.5 131.4 97.8 149.9 98.6 151.2 99.4 152.5 938 152.2 938 150.9z" id="path3128" fill="#e2d0af"/><path d="M261 996.3C138.3 989.7 43.1 900.7 28.8 779.5c-1.9-16.1-1.9-518.9 0-535C42.3 130.4 127.2 44.6 242.5 28.9 254.9 27.2 742 26.3 768.3 28 884.9 35.1 975.4 115.6 996.2 230.7L998.5 243.5l0 268.5 0 268.5-2.3 12.8C975.6 907.4 885.5 988.3 770.5 996 757.2 996.9 276.9 997.2 261 996.3zM780.5 966.8C872.6 951.5 941.2 893.9 968.9 808.6 980.5 773.1 980.1 781.4 979.8 543.5l-0.3-205-252.5 0-252.5 0-13.7 22.5c-7.6 12.4-14.5 23.9-15.3 25.5-0.9 1.7-2.7 4.8-4 7-1.4 2.2-3.1 5.4-3.9 7.1-0.8 1.7-2.2 3.7-3 4.4-0.9 0.7-1.6 1.8-1.6 2.4 0 0.6-1.7 3.6-3.8 6.6-2.1 3-6.3 9.7-9.2 14.8-3 5.1-6.4 11-7.7 13-1.2 2-2.8 4.8-3.4 6.2-0.7 1.4-1.9 3.3-2.7 4.3-1.8 2.1-3.6 5.2-5.6 9.4-0.8 1.7-2 3.5-2.5 3.8-0.6 0.4-1.7 2.1-2.6 3.8-0.8 1.7-2.6 5-4 7.2-1.3 2.2-2.9 5-3.4 6.2-0.5 1.2-2.6 4.5-4.5 7.2-1.9 2.8-3.5 5.4-3.5 5.7 0 0.4-1.9 3.6-4.3 7.3-6.2 9.5-6.6 10.3-8.2 13.7-0.8 1.7-2.1 3.7-3 4.4C363.7 521.7 363 522.7 363 523.3c0 1.3-21.8 37.6-23.7 39.5-0.7 0.7-1.3 1.8-1.3 2.4 0 0.6-1.3 3-2.9 5.3-1.6 2.3-4.5 7.1-6.6 10.6-2 3.5-5.9 10-8.5 14.4-2.7 4.4-7.4 12.3-10.5 17.5-5.4 9-9.4 15.6-19.5 32.2-2.5 4-5.1 8.5-5.8 9.8-0.7 1.4-2.4 4.3-3.7 6.5-1.4 2.2-3.1 5.4-3.9 7.2-0.8 1.7-1.8 3.3-2.3 3.5-0.4 0.2-4.1 6-8.2 12.8-4.1 6.9-8.7 14.4-10.2 16.7-1.5 2.3-2.8 4.4-2.8 4.8 0 0.3 52.4 0.6 116.4 0.6 76.5 0 116.7 0.3 117.1 1 0.6 1-90.2 1.3-333.5 1-53.9 0-94.1 0.3-94.9 0.8C55.8 711.4 57.1 761.1 60 777 78.5 881 163.1 958.6 268 967.9c20.1 1.8 501.4 0.7 512.5-1.1zM529.6 886.2c-2.4-2.7-3.1-8.2-1.3-10.6 2.4-3.2 6.9 2.3 6.5 7.9-0.3 4.6-2.4 5.7-5.2 2.7zm68.9-2.2c-1-1.7 0.4-6.2 1.8-5.7 1.5 0.5 1.6 5.9 0.1 6.5-0.6 0.2-1.5-0.1-1.8-0.7zm123.9-0.4c-0.8-2.2 0-6.9 1.2-7.3 1.4-0.5 2.7 4.2 1.8 6.8-0.7 2.3-2.3 2.5-3.1 0.5zm81.2-0.9c-1-0.8-1.5-1.6-0.9-2 1.3-0.8 3.7 0.8 3.2 2.2-0.3 0.8-0.9 0.8-2.3-0.2zM230 880.5c-0.7-0.8-2.3-1.5-3.6-1.5-2.5 0-6-4.2-4.9-6 1.1-1.8 3.2-1.2 4.9 1.5 0.9 1.4 2.4 2.5 3.4 2.5 2.1 0 4.2 1.9 4.2 3.7 0 1.8-2.5 1.6-4-0.2zm36.5 0.6c-0.3-0.5 0.2-1.7 1.1-2.6 1.2-1.2 1.8-1.3 2.1-0.5 0.9 2.8-1.8 5.5-3.2 3.2zm83.1-1.7c-1.3-1.3-0.7-9.1 0.8-10.3 3-2.5 4.3 0.9 2.9 7.8-0.6 2.9-2.2 4-3.7 2.5zm88.9-0.9c-1.2-3.2-0.6-7.5 1.4-9.5 3.2-3.2 2.5-17.3-0.8-17.8-4.1-0.6-6.5-10.9-6.8-29.3-0.2-9.6-0.8-11.3-3.7-10.6-2.7 0.7-9.6-2.1-10.8-4.4-3.1-5.8-1.1-7.7 8.5-8.2l5-0.3 0.6-9c1.3-18.9 9-30.1 24.3-35.4 6.9-2.4 26.5-0.6 27.2 2.5 1.1 4.4-1.9 7.4-7.4 7.4-4.7 0-10.2 1.5-17.5 4.7-5.6 2.4-7 5.8-7.5 19l-0.4 11.2 12.9 0.3L476.5 799.5l0.3 3.2c0.7 6.8-0.4 7.3-13.3 6.6-13.7-0.7-12.9-1.7-14 15.7-0.6 9.7-1.1 12.2-3.3 16.1l-2.6 4.6 1.7 6.1c2.3 8.1 2.2 12.4-0.3 14.6-1.3 1.2-2 3.1-2 5.4 0 7-2.7 10.9-4.4 6.5zm222.4-4.3c-2.1-4-0.5-10.8 3.4-14 2.5-2.1 4.6 0.4 4.6 5.3 0 6.6-5.7 12.9-8 8.7zM278 872.4C278 869.5 279.6 866 281 866c1.5 0 2.2 4.6 1 6.9C280.5 875.9 278 875.6 278 872.4zm513.6 0.3c-1.8-2.6-2-4.4-0.5-5.3 1.6-1 4.9 2.5 4.9 5.2 0 3-2.4 3.1-4.4 0.1zM353 864.8c0-3.5 2.5-6.6 4.1-5 1.7 1.6 0 6.6-2.4 7.1C353.5 867.1 353 866.5 353 864.8zm431.6-2C783.7 861.6 783 859.2 783 857.6c0-1.6-1.2-5.8-2.6-9.4-2.1-5.4-2.4-6.9-1.5-9.5 0.6-1.7 1.1-5.6 1.1-8.7 0.1-13.1 10.1-25.2 26-31.2 6.9-2.6 21.8-2 27.8 1 6 3.1 12.2 11.6 12.2 16.9 0 8.1-4.1 10.8-6.2 4-1.2-4.1-5.2-7.9-12-11.4-4-2.1-17.9 0.5-23.3 4.4-5.8 4.2-7.3 7.4-7.7 16.1l-0.3 7.5 20.8 0.5c21.7 0.5 22.7 0.7 22.7 5.1 0.1 5.4 0.7 5.3-38.7 6.5-13.9 0.4-14.5 0.9-13.7 9 0.7 6.9-0.2 8.2-3.1 4.2zM725.4 856c-0.9-2.2-1.9-4-2.3-4-1.3 0-5.9-15.3-6.6-22-0.9-8.2-2-10.4-8.5-16.4l-5.2-4.8-8.8 0.4c-10.9 0.5-18.2 5-20.1 12.3-0.6 2.2-1.7 5.7-2.5 7.8-0.8 2.1-1.5 5.2-1.5 7 0 1.8-1.1 5.4-2.5 8.1-1.4 2.7-2.5 5.7-2.5 6.7 0 4.3-6 2.8-8-2-1.8-4.3-2.1-46.9-0.3-48.7 1-1 3.7-1.4 8.4-1.4 7.5 0 8.9 1.2 8.9 7.6 0 3.1 1 3.1 4-0.1 11.3-12 32.9-12.9 44.4-1.8 8.8 8.4 11.4 19.1 9.8 39.7-1.3 15.8-3.6 19.7-6.9 11.6zM279.6 855C278.7 852.8 278 848.7 278 846c0-11.1-8.5-30-15.6-34.7-4.7-3.1-23.8-2.9-28.6 0.2-8.7 5.7-17.2 26.7-15 37.1 1 4.6 0.1 10-1.6 9.2-0.4-0.2-2.3-1.1-4.2-2-7.7-3.6-9.4-6.6-9.5-17.5-0.2-23.8 18.3-41.3 43.9-41.2 20 0 34.5 9.2 42.7 27 3.4 7.5 3.3 27.9-0.2 27.9-0.5 0-1.9 1.6-3 3.5-2.8 4.7-5.2 4.5-7.3-0.5zM520.1 856.3c-0.7-1.5-1.6-5-2.1-7.7-0.4-2.7-1.2-7.7-1.8-11-0.5-3.3-1-23-1.1-43.7l-0.2-37.7 2.3-0.6c1.3-0.3 5.2-0.4 8.8-0.3L532.5 755.5 532.8 787c0.2 19.9-0.2 35.4-0.9 42-0.7 5.8-1.3 12.5-1.4 15-0.2 6.6-0.3 6.8-2.4 7.5-1.1 0.3-2.5 2.2-3.1 4.1-1.4 4.2-3.2 4.4-4.9 0.7zm73.5-1.2C592.7 853.4 592 850 592 847.5c0-2.5-0.8-6-1.7-7.8-1.5-2.7-1.7-6-1.7-21 0-20.5-0.4-19.7 9.6-19.7 9.1 0 9.2 0.2 8.4 14.7-0.4 6.5-0.6 14-0.6 16.8 0.2 11.2-1 17.7-3.9 20.4-1.5 1.4-3.3 3.6-3.9 4.8-1.6 3-2.8 2.8-4.6-0.7zm-246.6-6.1c-1.8-1.8-2-2.8-1.4-7.4 0.5-4.1 0.3-6.1-1.1-8.7-1.2-2.2-2-6.7-2.3-12.9L341.5 810.5 338 810.5c-4.9 0-9.2-2.5-10.3-5.8-1.3-4 0.1-5 7.7-5.5l6.4-0.4 0.5-8.6c1.6-25.8 15.8-38.6 40.4-36.5 10.8 0.9 10.8 0.9 11.2 3.6 0.6 4.9-1.3 6.8-6.7 6.8-5.4 0-16.3 3.1-19.8 5.5-4.1 2.9-5.4 7-5.9 18.6L360.9 799l12.4 0c13.9 0 15.3 0.6 14.2 6-1 4.8-2.8 6-7.2 5-2.1-0.5-7-0.9-10.9-0.9-8.6 0-8.2-0.8-9.4 15.5-0.5 6.6-1.4 13.9-1.9 16.2-0.5 2.3-1 5.3-1 6.6 0 4.1-6.5 5.1-10.1 1.6zm495.9-5.6c0.7-0.3 1.6-0.3 1.9 0.1 0.3 0.3-0.3 0.6-1.3 0.5-1.2 0-1.4-0.3-0.6-0.6zM591.1 775.5C585 768.5 589 760 598.5 760c9.7 0 13.8 8.9 7.1 15.6-4.9 4.9-10.1 4.8-14.5-0.1zM488.5 661.1c-9.4-2.6-15.5-7.2-21.7-16.5-10.8-16.2-11.1-17.8-11.5-61.1-0.2-19.8-0.6-37.5-0.9-39.2l-0.5-3.2-9 0C434.8 541 434 540.3 434 531.9l0-3.9 9.3 0c12.4 0 11.6 0.9 12-16L455.5 497.5l11 0 11 0 0.8 14.5c0.5 8 1.1 14.7 1.3 15 0.3 0.3 8.5 0.7 18.2 1l17.7 0.5-0.3 4.5C514.5 541.2 515 541 496.4 541l-16.5 0-1 2.6c-2.4 6.3-0.6 74.4 2.2 84.2 3.4 11.8 14.3 16.8 28.3 13.1 2.2-0.6 5.9-1.3 8.3-1.6l4.3-0.5-0.1 5.9c-0.2 10.6-0.7 11.6-7.3 14.2-6.3 2.5-20.7 3.8-26.1 2.3zM591 661.3c-16-2.9-41-27.2-46.9-45.6-13.2-41.1 2.1-77.9 36.6-87.8 10.4-3 30-2.7 39.5 0.5 32.4 10.9 47.2 45.1 36.2 83.1-4.1 14-7.6 19.6-20 32.1C620.6 659.7 608.3 664.4 591 661.3zm22-22.3c18.3-9.3 27.7-35.5 23.1-64.7-6.5-41.5-55.3-49.4-70.3-11.3-3.4 8.5-3.9 36.3-0.9 47.4 7 25.8 28.4 38.6 48 28.7zm113.5 22.1C712.5 657.5 692.1 635.4 686.6 618c-4.8-15.3-6-39.9-2.5-50 5.8-16.5 11.1-24.9 20.2-32.2 12.1-9.6 30.9-12.8 47.2-7.9 7.4 2.2 18.5 10.7 19.9 15.2 0.3 1.1 1.3 2 2.1 2 1.2 0 1.4-5.3 1.4-35.3 0-26.1 0.3-35.6 1.2-36.5 1.6-1.6 19-1.6 20.6 0 1.5 1.5 1.8 177.2 0.2 181.2-1 2.5-1.2 2.6-10.9 2.6-11.6 0-11.1 0.6-11.1-13 0-12.6-0.6-12.7-8.8-1.7-12.4 16.5-25.2 22.6-39.7 18.9zM752.5 639.6c12-5.6 18.3-16.4 21.1-36.1 5.7-40-7.2-64.9-33.6-64.9-21.5 0-35 17.6-35 45.9 0 26.4 3.2 38 13.4 48.1 10 9.9 22.4 12.5 34.1 7.1zm117.5 20.1c-18.3-6.3-39.2-29.5-44.4-49.3-10.2-39.4 5.4-73.1 38.2-82.5 14.8-4.2 35.4-2.5 48.6 4.1 30.7 15.4 40.5 62.9 19.9 96.8-15.6 25.6-40.9 38.2-62.3 30.9zM895.8 639.5c15-7 22.7-21.8 23.8-45.9 1.1-22.8-1.8-33.7-11.6-44-20.3-21.5-54.5-10.1-60.9 20.2-3.3 15.5-0.7 41.4 5.3 53 8.2 16 28.2 23.7 43.3 16.7zM231 705.8c0-0.6-1.1-2.6-2.5-4.4-2.8-3.7-4.4-8.3-7-19.9-1-4.4-2.9-11.8-4.2-16.5-1.3-4.7-2.9-10.3-3.5-12.5-0.6-2.2-1.4-5.1-1.8-6.5-0.4-1.4-1.5-6.1-2.5-10.5-1-4.4-2.3-9.6-3.1-11.5-0.8-1.9-1.8-5.7-2.3-8.5-0.5-2.7-1.5-6.8-2.1-9-0.6-2.2-1.5-5.6-2-7.5-0.5-1.9-1.6-6-2.5-9-0.9-3-2.5-9.3-3.5-14-1.1-4.7-2.4-10.3-3.1-12.5-0.6-2.2-1.6-5.8-2.2-8-1.6-6.4-1.7-6.5-2.5-6.5-0.4 0-3.6 2.4-7 5.3-15.4 13.1-26.7 22.3-28.7 23.5-9.7 5.4-23.2-8-18.4-18.2 1.5-3.1 14.7-15.1 33.6-30.5 4.4-3.6 13.1-10.8 19.4-16.1 20.4-17.2 27.6-19 36.8-9.2 3.7 3.9 4.3 5.6 10.8 32.3 1.1 4.7 2.6 9.9 3.1 11.5 0.6 1.7 1.7 5.7 2.4 9 0.7 3.3 2.3 9.6 3.5 14 1.2 4.4 2.7 10.7 3.4 14 0.7 3.3 1.7 6.9 2.3 8 0.6 1.1 1.4 4 1.7 6.5 0.4 2.5 1.3 6.1 2 8 1.6 4.3 4.3 14.5 6 22.8 2.1 10.1 3.4 10.3 8.7 1.2 1.1-1.9 3.1-5.3 4.5-7.5 1.3-2.2 3-5.1 3.6-6.5 0.7-1.4 1.9-3.3 2.7-4.3 0.8-1 2-2.6 2.6-3.6 0.6-1 2.9-4.9 5.1-8.5 6.9-11.5 8.3-13.9 11.5-20.1 1.7-3.3 3.6-6.5 4-7.1 0.8-0.9 25.5-41.6 31.6-51.9 1.3-2.2 3-5.4 3.8-7.2 0.8-1.7 1.9-3.5 2.5-3.8 0.6-0.4 1.7-2.1 2.5-3.8 2-4.3 4.8-9.1 5.7-9.7 0.4-0.3 1.2-1.6 1.8-3C348.6 492.6 350.4 489.5 352 487c1.6-2.5 3.4-5.4 3.9-6.5 0.5-1.1 1.6-2.6 2.5-3.4 0.9-0.7 1.6-1.8 1.6-2.3 0-1 6.3-12.3 10.5-18.8 1.2-1.9 6.2-10.2 11.1-18.5 4.9-8.2 9.4-15.7 10-16.5 0.7-0.8 2.4-3.9 3.9-6.8 1.5-2.9 3.1-5.5 3.6-5.8 0.5-0.3 1.6-2 2.4-3.7 0.8-1.7 2.6-5 4-7.2 1.4-2.2 3.1-5.4 3.9-7.2 0.8-1.7 2-3.5 2.6-3.8 0.6-0.4 1.5-1.6 2-2.8 1.1-2.5 1.9-3.8 7.7-12.7 2.3-3.6 4.3-6.9 4.3-7.2 0-0.4 3.2-5.9 7-12.4 3.9-6.4 6.6-12.1 6.2-12.5-0.4-0.4-86.5-0.7-191.3-0.6L57.5 338.5 57.2 522.8 57 707 144 707C209.1 707 231 706.7 231 705.8zM441.4 335.4c0.9-0.3 6.4-8.6 12.3-18.4 14.1-23.4 15-24.9 16.8-28.6 0.8-1.7 2-3.5 2.5-3.8 0.6-0.4 1.7-2.1 2.5-3.8 2.1-4.4 4.7-8.8 6.2-10.5 0.7-0.7 1.3-1.9 1.3-2.7 0-0.7 0.7-1.9 1.6-2.6 0.9-0.7 2.2-2.7 3-4.4 0.8-1.7 2.2-4.2 3.2-5.6 1-1.4 2.7-4.1 3.9-6 8.3-13.1 23-18.6 40.3-15 7 1.4 7.6 2.1 6.3 6.8-0.6 2.1-1.6 6.9-2.2 10.8-0.6 3.9-1.6 8.7-2.2 10.9l-1.1 3.9-5-0.5c-9.8-0.9-13.9 2-22 16.3-4.2 7.3-12.4 20.9-23.5 38.9-4.4 7.1-7.1 12.6-6.8 13.5 0.7 1.7 497.8 2.4 500.5 0.7 2.4-1.5 1.1-76.3-1.6-91.6-5.3-29.9-16.9-61.6-30.6-82.9l-3.6-5.6-424.7 0.3-424.7 0.3-2.7 4c-13.1 19.5-25.2 51.7-31.1 82.4-2 10.5-4 88.4-2.4 92.7 0.6 1.5 380.1 2.4 384 0.9zM940 151.5c0-0.8-1.9-4.1-4.2-7.2C897 91.7 838.9 58.1 774.5 51 767.4 50.2 691.6 50 512 50.2L259.5 50.5 245.9 53.2C196.6 63.1 154.7 85.7 121.5 120.1 110.5 131.5 95.6 150.6 96.5 152.1 97.7 153.9 940 153.3 940 151.5z" id="path3126" fill="#d4985b"/><path d="M250 994.3C139.4 985.8 50 901.6 31.3 788.5c-2.8-17.1-2.8-535.9 0-553C49.2 127.2 127.2 49.2 235.5 31.3c17.2-2.8 539-2.8 556 0 107.6 18 185.7 95.5 203.7 202.2L997.5 247.5l0 264.5 0 264.5-2.3 13.9C978.7 888.3 907.6 965.9 814.1 988.1 785.3 995 813.6 994.4 519 994.5c-145.5 0.1-266.5 0-269-0.2zM777.7 968.5C880.2 955 958.1 881.1 978.2 778l2.3-11.5 0-258 0-258-3.2-15C970.9 205.4 955.2 167 944.8 155.7 943.2 154.1 942 152.2 942 151.5 942 148.2 922 124.1 909.3 112 872.2 76.9 825.2 55.2 774.1 49.5 753.3 47.3 283.6 47.2 263 49.5 207.7 55.7 158.7 79.6 120.5 119.2 109.2 130.9 95 148.7 95 151.3c0 0.8-1.5 3.1-3.4 5-4.1 4.3-18.3 32.7-22.6 45.1-7 20.4-11.2 39.4-13 59.6-1.4 16.1-1.4 480.2 0 496.5 6.5 74.1 47.7 140.3 111.5 179.3 28.6 17.5 59.5 27.7 97.9 32.5 11.2 1.4 501.3 0.6 512.2-0.9zM530.2 884.7c-2.1-2.5-2.5-6.7-0.8-7.4 2.1-0.8 4.5 2.2 4.5 5.9 0 2.9-1.9 3.7-3.8 1.5zM723 880.4c0-0.9 0.5-1.3 1-0.9 0.6 0.3 0.8 1 0.4 1.6C723.6 882.5 723 882.2 723 880.4zM350 874.5c0-2.5 0.4-3.5 1.3-3.2 0.7 0.2 1.3 1.7 1.3 3.3 0 1.6-0.6 3-1.2 3.3-0.8 0.3-1.2-0.8-1.2-3.2zm89.4 2.1c-0.8-2.1-0.1-4.9 1.3-5.4 0.8-0.3 1.3 0.6 1.3 2.6 0 3.3-1.7 5.1-2.6 2.8zm222.2-4.2c-1.2-3.2-0.5-6.6 1.9-9 3.1-3.1 4.5-2.4 4.5 2.5 0 5.1-5 10.2-6.4 6.5zM279.5 871c0.3-0.5 0.8-1 1.1-1 0.2 0 0.4 0.5 0.4 1 0 0.6-0.5 1-1.1 1-0.6 0-0.8-0.4-0.4-1zm164-7.2c-0.8-2.2-0.2-6.8 1-7 1.4-0.3 1.9 6.3 0.6 7.6-0.7 0.7-1.2 0.6-1.6-0.5zm-88.9-0.6c-0.3-0.6-0.1-1.3 0.5-1.7 1.5-1 2.5 0.4 1.2 1.6-0.7 0.7-1.3 0.7-1.7 0.1zm429.9-3.2c-0.7-2.4-0.1-3.4 1.5-2.5 1.3 0.8 1.4 4.5 0.1 4.5-0.5 0-1.2-0.9-1.6-2.1zM727 857.3c0-0.4-1-2.3-2.2-4.2C720.4 846.1 717 836.1 717 830.4c0-20.4-23.7-30.6-39.3-16.9-3 2.6-6.2 11.6-7.6 21-0.8 5.4-6.5 16.5-8.5 16.5-4.4 0-5-3.2-5.4-27.1l-0.3-22.9 2.7-1C666.2 797.1 673 799.3 673 804.9c0 5 0.8 5.6 3.9 2.8 13.5-12.5 33.6-13.5 45.3-2.3 8.1 7.8 12 20.9 9.9 33C731.5 841.8 731 846.8 731 849.4 731 854.3 729.7 858 728 858c-0.5 0-1-0.3-1-0.7zM212.9 855C205.5 851.1 204 848.1 204 837.4c0-17.4 10.6-31.7 27.9-37.5 6.1-2 25.6-2.7 28.9-1 1 0.5 4.8 2.1 8.5 3.6C282.6 807.9 292 822.7 292 838.2 292 848.2 291 851 287.5 851c-1.9 0-2.5 0.6-2.7 2.7-0.4 3.8-3.3 4.1-4.6 0.6-0.6-1.5-1.3-5.5-1.7-8.8-1.6-15.2-8.7-31-16-35.5-4.6-2.8-24.5-2.8-29.1 0-7.9 4.9-16.2 25.2-15.1 37 1 10.2 0.4 11.1-5.5 8zm307.6-1.5C519.7 851.6 519 849 519 847.7c0-1.3-0.7-4.1-1.6-6.2-1.3-3.2-1.7-10.3-2.2-44.1l-0.6-40.3 2.7-1c3.4-1.3 11.6-1.3 13.6-0.1 1.9 1.2 1.8 52.4-0.1 76.5-1.1 14.3-1.3 15.2-4 18.3-1.6 1.8-2.9 3.9-2.9 4.8 0 2.7-2.1 1.5-3.6-2zm73.6 0.6c-0.6-1.1-1.1-4.2-1.1-6.8 0-3.1-0.7-5.9-2-7.8-1.8-2.7-2-4.7-2-20.8L589 801l2.6-1c3.3-1.3 8.6-1.2 12 0l2.7 1-0.6 21.5c-0.7 24.1-0.6 23.5-5.4 29-4.3 4.9-4.7 5.1-6.1 2.6zM781.4 848.3c-1.8-2.8-1.9-4.3-1.1-16.7 0.9-14.3 7.2-22.9 22-30.7 10.5-5.5 31.9-3.2 36.4 4 0.9 1.5 2.8 4 4 5.6 1.4 1.7 2.3 4.2 2.3 6.2 0 7.3-3 8.9-4.9 2.5-1.8-5.9-11.8-12.4-17.6-11.5-11.3 1.7-13.9 2.5-17.7 5.1-7 4.9-8.2 7.4-8.6 17L795.8 838l7.4 0.1c4 0.1 13.3 0.2 20.6 0.3 14.1 0.2 15.8 0.8 14.3 5-1.1 2.9-8.6 4.6-19.6 4.5-15.2-0.2-29.9 0.7-32.2 2-2.9 1.5-2.8 1.6-4.9-1.6zm-434.3-1.1c-0.6-1.1-0.8-3.5-0.4-5.5 0.4-2.5-0.1-5.1-1.5-8.6C343.6 829.6 343 826.1 343 821.1c0-9-1.3-12.6-4.2-11.8-4.8 1.2-13-5.6-10.1-8.4 0.6-0.6 3.6-1 6.7-1.1 6.9-0.1 6.7 0.2 7.7-11.8 1.2-15.6 7.8-26.2 19.5-31.7 6.1-2.8 28.3-3.6 30.4-1 2.6 3.2-0.3 6.3-6.5 7.1-8 1-19.5 5.1-21.6 7.6-2.5 3.1-3.6 8.3-3.9 18.5-0.3 12.1-0.8 11.6 12.6 11.4 12.3-0.2 13.6 0.1 13.6 3.5 0 4.3-2.2 6-6.6 5.1-5.7-1.2-17.4-0.9-18.7 0.4-0.6 0.6-1.6 6.9-2.1 13.9-1.4 19.3-3.4 25.7-7.9 26.1-2.7 0.2-3.8-0.2-4.6-1.6zm89.3 0.7C435.4 846.2 433.9 834.4 433.2 822.5c-0.8-12.9-1-13.6-5.7-12.8-4.2 0.7-8.1-1.6-9.6-5.4-1.4-3.6-0.2-4.4 7.2-4.6L431.5 799.5 431.8 796c2.2-30.2 12.5-42 36.9-42 12.8 0 14.3 0.4 14.3 3.5 0 3.2-1.7 4.2-7.5 4.8-6.9 0.6-18.5 5.1-21.1 8.1-2.5 2.9-4 11.6-3.9 22.1l0.1 7 11.8 0.2c14.3 0.2 15.1 0.4 14.2 4.1-1.1 4.3-2.5 5.5-6 4.8-1.7-0.4-6.4-0.8-10.4-0.9-9.1-0.4-9.7 0.3-10.6 12.4-0.4 4.7-0.8 10.3-1 12.5-0.7 8.1-9.6 19.5-12.1 15.4zM594.5 776.8c-3.3-1.8-5.5-5.1-5.5-8.4-0.1-9.4 14.3-10.6 19.4-1.7 2.8 4.9-8.4 13-13.9 10.1zM236 708.7c-3.1-1.3-10-10-11.1-14.1-0.4-1.7-1.8-7.1-2.9-12.1-2.8-12-4-16.3-5.6-20.7-0.8-2.1-1.2-3.7-0.9-3.7 0.3 0 0-1.2-0.6-2.7-1.3-3.3-2.5-7.6-4.5-16.2-1.9-8.3-2.8-12-4.9-19.5-0.9-3.3-2.1-7.8-2.7-10-0.6-2.2-1.4-5.3-1.9-7-2.8-10.3-7.2-27.7-7.9-31.5-1.6-8.5-5.7-21.5-6.8-21.5-1.1 0-7.4 4.9-21.8 17-12.8 10.8-15.4 12.5-19 12.5-7.1 0-13.5-7.5-13.5-16 0-4.3 0.3-4.8 8.2-12.2 4.5-4.3 8.6-7.7 9-7.8 0.4 0 4.7-3.5 9.6-7.9 4.9-4.3 10.7-9.1 12.8-10.7 2.1-1.6 7-5.6 10.9-9 21.7-19.1 30.4-21.6 39.8-11.7 2.7 2.8 5.2 10.2 10.3 30.7 0.8 3.3 1.9 7.7 2.4 9.8 0.5 2.1 1.4 5.4 1.9 7.5 0.5 2.1 1.4 5.3 1.9 7.3 0.5 1.9 2.4 9.1 4.1 16 1.7 6.9 3.6 13.9 4.2 15.5 0.6 1.7 1.7 5.7 2.4 9 0.7 3.3 1.7 7.4 2.3 9 1.3 3.9 4 14.6 5.5 21.7 2.2 10.8 5.1 9.4 12.8-6.2 0.7-1.4 1.9-3.3 2.7-4.3 1.6-1.9 3.3-4.6 5.4-8.7 0.7-1.4 2.6-4.5 4.2-7 3.6-5.5 5.9-9.5 7.9-13.6 0.8-1.7 2.2-3.7 3.1-4.4C294.3 585.3 295 583.9 295 582.9c0-1 0.4-2.1 0.9-2.4 0.5-0.3 2.8-3.8 5.1-7.8 2.3-4 7-12 10.5-17.7 3.5-5.8 8-13.2 9.9-16.6 1.9-3.3 5.1-8.5 7.1-11.4 1.9-2.9 3.5-5.8 3.5-6.5 0-0.7 0.7-1.9 1.6-2.6 0.9-0.7 2.2-2.7 3-4.4 1.9-4 4.8-8.9 5.5-9.6 0.3-0.3 2-3.2 3.8-6.4 1.7-3.3 3.7-6.6 4.3-7.4 1.5-1.9 3.3-4.9 5.2-8.9 0.8-1.7 2-3.5 2.5-3.8 0.5-0.3 2.2-3 3.6-5.8 1.4-2.9 3.5-6.6 4.6-8.2 2.1-3.2 17.8-29.2 27.6-45.8 3.2-5.4 6.8-11.5 8-13.5 1.2-2 2.8-4.8 3.4-6.2 0.7-1.4 1.9-3.3 2.7-4.3 0.8-1 2-2.6 2.6-3.7 0.6-1.1 2.9-4.9 5.1-8.6 7.6-12.6 8.4-14 11.5-19.8 1.7-3.2 3.9-7 5-8.5 1-1.5 4.1-6.5 6.8-11.2 2.7-4.7 8.7-14.6 13.3-22 10.2-16.6 12.6-20.6 14.5-24.7 0.8-1.7 1.9-3.5 2.5-3.8 0.6-0.4 1.7-2.1 2.5-3.8 2.2-4.6 4.7-8.8 6.7-11.1 1-1.1 1.8-2.5 1.8-3.2 0-0.7 0.7-1.7 1.5-2.4 0.8-0.7 1.5-2 1.5-3 0-0.9 0.9-2.5 2-3.5 1.1-1 2-2.3 2-3 0-0.7 0.9-2 2-3 1.1-1 2-2.3 2-2.9 0-0.6 1.2-2.9 2.7-5.1 8.3-12.5 16.3-16.9 30.8-17 12.9-0.1 18 1.5 17 5.3-0.4 1.5-1.3 5.8-2.1 9.6-0.8 3.9-1.9 9-2.4 11.5-0.5 2.5-1 4.9-1 5.4 0 0.5-2.5 0.6-5.5 0.2-6.7-0.8-12.3 1.2-14.8 5.1-2.4 3.7-19 30.6-22.7 36.7-1.7 2.8-6.3 10.5-10.3 17.2-4 6.7-13.3 22.2-20.7 34.4-17.2 28.2-18.7 30.8-20.5 34.6-0.8 1.7-1.9 3.5-2.5 3.8-0.6 0.4-1.7 2.1-2.5 3.8-1.9 4.1-4.8 9-5.6 9.7C429.8 411.8 412 441.8 412 442.8c0 0.5-0.9 1.7-2 2.7-1.1 1-2 2.5-2 3.3 0 0.8-0.7 2.3-1.7 3.4-0.9 1-2.2 2.7-2.7 3.7-1.6 2.7-5.4 9.1-8.1 13.6-1.3 2.2-3 5.1-3.7 6.5-0.7 1.4-1.8 3.1-2.5 3.8-0.7 0.7-1.3 1.9-1.3 2.6 0 0.7-0.7 1.9-1.6 2.6-0.9 0.7-2.2 2.7-3 4.4-0.8 1.7-2.2 4.3-3.2 5.7-1.7 2.5-3.5 5.4-6 9.4-0.7 1.1-1.9 3.4-2.7 5.2-0.8 1.7-1.9 3.5-2.5 3.8-0.6 0.4-1.7 2.1-2.5 3.8-0.8 1.7-1.9 3.9-2.4 4.7-0.5 0.8-6.1 9.9-12.3 20.3-6.2 10.3-14.1 23.4-17.5 29-3.4 5.6-8.4 14.1-11.1 18.7-2.7 4.7-7.5 12.6-10.5 17.5-3.1 5-7.4 12.2-9.6 16-2.2 3.9-6.8 11.3-10 16.5-3.3 5.2-6.7 11.1-7.7 13-1 1.9-3.3 6-5.3 9-4.1 6.4-3.7 5.8-13.4 22-8.4 14.2-13.6 21.3-16.9 23.4-3 1.9-10.6 2.6-13.8 1.4zm246.1-50.8c-4.3-2.2-7.2-4.5-9.4-7.6-1.8-2.4-4.6-6.4-6.4-8.8C456.6 628.2 455.9 624.2 455.4 580c-0.6-45.8 0.7-41-10.4-41-9.9 0-9.8 0-10.2-6.5l-0.2-4 10-0.5 10-0.5 0.5-14c0.6-17.4 0-16.5 11.4-16.5 11.8 0 11.6-0.2 11.8 13.5 0.1 6.1 0.4 12.4 0.8 14.1l0.6 3 17.5 0.5 17.5 0.5 0.3 2.6c0.2 1.4-0.2 3.8-0.7 5.3L513 539l-16.5 0c-15.3 0-16.6 0.1-17.5 1.9-1.3 2.4-1.4 62.8-0.1 76.1 2.1 21.4 12.3 29.1 31.7 23.9 10.8-2.9 10.3-3.1 10.3 5.4 0 8.9-0.8 10.1-8.4 12.7-9.7 3.3-22.6 2.9-30.5-1.1zM586.5 659.2c-8.5-3.7-11.3-5.9-21.8-16.5-20.2-20.5-25.7-33.9-24.4-59.7 1.7-35.5 22.6-55.8 58.6-56.8 44.9-1.3 71.4 38.4 57 85.4-4.8 15.9-23.3 38.2-37.7 45.5-8.2 4.2-24.5 5.3-31.7 2.1zm27.7-20.4c15.6-8.3 21.4-20.2 22.5-45.8 1-23.6-1.7-34.8-10.8-44.6-18.3-19.9-50.3-13.5-59.8 12-6.4 17-4.6 48.6 3.6 63.6 8.7 16.1 29.3 22.9 44.5 14.7zm106.9 19.5c-5.3-2.6-8.9-6.1-21.6-20.4-12.1-13.6-16.7-26.9-16.9-49-0.3-31.6 14.7-55.2 39-61.6 6.1-1.6 22-1.9 25.5-0.5 1.3 0.5 4.3 1.4 6.8 2.1 3.6 1 6.1 2.9 12.8 9.6l8.3 8.4 0-35.5c0-19.5 0.3-36.2 0.6-37 0.9-2.3 20.9-2.3 21.8 0 0.8 2.1 0.5 163.6-0.3 173.4l-0.6 7.5-10 0-10 0-1-11.9c-1.1-13.1-1.8-14.3-5.3-9-4 6.2-14.2 18.3-17.6 20.9-8.4 6.4-22 7.6-31.5 2.9zm28.7-17.2C767.9 634.2 774.7 619 774.9 585c0.1-28.3-9.6-44.3-29.2-47.9-18.8-3.5-35.7 9.6-39.7 30.8-1.3 7-1.3 35.2 0.1 40.4 4.1 15.8 4.9 17.6 11.4 24.4 8.4 8.9 21.8 12.4 32.3 8.3zm116.6 16.4C855.8 652.6 836.6 633 830.9 621.5c-6-12.1-7.4-18.8-7.4-34.5-0.1-30.4 14-50.9 40.2-58.7 6.7-2 31.3-2.4 37.4-0.6 36.4 10.7 52.3 55.2 33.7 94.2-5.4 11.3-23.6 30.4-33.7 35.4-10.3 5.1-24.6 5.2-34.8 0.3zm30.7-18.6c16.7-8.5 23.6-24.7 23.1-54.5-0.3-18.4-3.3-27.6-11.9-36.7-16.4-17.5-44.1-13.9-56.5 7.4-9 15.4-8.3 52.3 1.5 69.5 8.8 15.5 28.6 22 43.8 14.3z" id="path3124" fill="#cb833d"/><path d="m530.2 884.7c-2.1-2.5-2.5-6.7-0.8-7.4 2.1-0.8 4.5 2.2 4.5 5.9 0 2.9-1.9 3.7-3.8 1.5zM723 880.4c0-0.9 0.5-1.3 1-0.9 0.6 0.3 0.8 1 0.4 1.6C723.6 882.5 723 882.2 723 880.4zM350 874.5c0-2.5 0.4-3.5 1.3-3.2 0.7 0.2 1.3 1.7 1.3 3.3 0 1.6-0.6 3-1.2 3.3-0.8 0.3-1.2-0.8-1.2-3.2zm89.4 2.1c-0.8-2.1-0.1-4.9 1.3-5.4 0.8-0.3 1.3 0.6 1.3 2.6 0 3.3-1.7 5.1-2.6 2.8zm222.2-4.2c-1.2-3.2-0.5-6.6 1.9-9 3.1-3.1 4.5-2.4 4.5 2.5 0 5.1-5 10.2-6.4 6.5zM279.5 871c0.3-0.5 0.8-1 1.1-1 0.2 0 0.4 0.5 0.4 1 0 0.6-0.5 1-1.1 1-0.6 0-0.8-0.4-0.4-1zm164-7.2c-0.8-2.2-0.2-6.8 1-7 1.4-0.3 1.9 6.3 0.6 7.6-0.7 0.7-1.2 0.6-1.6-0.5zm-88.9-0.6c-0.3-0.6-0.1-1.3 0.5-1.7 1.5-1 2.5 0.4 1.2 1.6-0.7 0.7-1.3 0.7-1.7 0.1zm429.9-3.2c-0.7-2.4-0.1-3.4 1.5-2.5 1.3 0.8 1.4 4.5 0.1 4.5-0.5 0-1.2-0.9-1.6-2.1zM727 857.3c0-0.4-1-2.3-2.2-4.2C720.4 846.1 717 836.1 717 830.4c0-20.4-23.7-30.6-39.3-16.9-3 2.6-6.2 11.6-7.6 21-0.8 5.4-6.5 16.5-8.5 16.5-4.4 0-5-3.2-5.4-27.1l-0.3-22.9 2.7-1C666.2 797.1 673 799.3 673 804.9c0 5 0.8 5.6 3.9 2.8 13.5-12.5 33.6-13.5 45.3-2.3 8.1 7.8 12 20.9 9.9 33C731.5 841.8 731 846.8 731 849.4 731 854.3 729.7 858 728 858c-0.5 0-1-0.3-1-0.7zM212.9 855C205.5 851.1 204 848.1 204 837.4c0-17.4 10.6-31.7 27.9-37.5 6.1-2 25.6-2.7 28.9-1 1 0.5 4.8 2.1 8.5 3.6C282.6 807.9 292 822.7 292 838.2 292 848.2 291 851 287.5 851c-1.9 0-2.5 0.6-2.7 2.7-0.4 3.8-3.3 4.1-4.6 0.6-0.6-1.5-1.3-5.5-1.7-8.8-1.6-15.2-8.7-31-16-35.5-4.6-2.8-24.5-2.8-29.1 0-7.9 4.9-16.2 25.2-15.1 37 1 10.2 0.4 11.1-5.5 8zm307.6-1.5C519.7 851.6 519 849 519 847.7c0-1.3-0.7-4.1-1.6-6.2-1.3-3.2-1.7-10.3-2.2-44.1l-0.6-40.3 2.7-1c3.4-1.3 11.6-1.3 13.6-0.1 1.9 1.2 1.8 52.4-0.1 76.5-1.1 14.3-1.3 15.2-4 18.3-1.6 1.8-2.9 3.9-2.9 4.8 0 2.7-2.1 1.5-3.6-2zm73.6 0.6c-0.6-1.1-1.1-4.2-1.1-6.8 0-3.1-0.7-5.9-2-7.8-1.8-2.7-2-4.7-2-20.8L589 801l2.6-1c3.3-1.3 8.6-1.2 12 0l2.7 1-0.6 21.5c-0.7 24.1-0.6 23.5-5.4 29-4.3 4.9-4.7 5.1-6.1 2.6zM781.4 848.3c-1.8-2.8-1.9-4.3-1.1-16.7 0.9-14.3 7.2-22.9 22-30.7 10.5-5.5 31.9-3.2 36.4 4 0.9 1.5 2.8 4 4 5.6 1.4 1.7 2.3 4.2 2.3 6.2 0 7.3-3 8.9-4.9 2.5-1.8-5.9-11.8-12.4-17.6-11.5-11.3 1.7-13.9 2.5-17.7 5.1-7 4.9-8.2 7.4-8.6 17L795.8 838l7.4 0.1c4 0.1 13.3 0.2 20.6 0.3 14.1 0.2 15.8 0.8 14.3 5-1.1 2.9-8.6 4.6-19.6 4.5-15.2-0.2-29.9 0.7-32.2 2-2.9 1.5-2.8 1.6-4.9-1.6zm-434.3-1.1c-0.6-1.1-0.8-3.5-0.4-5.5 0.4-2.5-0.1-5.1-1.5-8.6C343.6 829.6 343 826.1 343 821.1c0-9-1.3-12.6-4.2-11.8-4.8 1.2-13-5.6-10.1-8.4 0.6-0.6 3.6-1 6.7-1.1 6.9-0.1 6.7 0.2 7.7-11.8 1.2-15.6 7.8-26.2 19.5-31.7 6.1-2.8 28.3-3.6 30.4-1 2.6 3.2-0.3 6.3-6.5 7.1-8 1-19.5 5.1-21.6 7.6-2.5 3.1-3.6 8.3-3.9 18.5-0.3 12.1-0.8 11.6 12.6 11.4 12.3-0.2 13.6 0.1 13.6 3.5 0 4.3-2.2 6-6.6 5.1-5.7-1.2-17.4-0.9-18.7 0.4-0.6 0.6-1.6 6.9-2.1 13.9-1.4 19.3-3.4 25.7-7.9 26.1-2.7 0.2-3.8-0.2-4.6-1.6zm89.3 0.7C435.4 846.2 433.9 834.4 433.2 822.5c-0.8-12.9-1-13.6-5.7-12.8-4.2 0.7-8.1-1.6-9.6-5.4-1.4-3.6-0.2-4.4 7.2-4.6L431.5 799.5 431.8 796c2.2-30.2 12.5-42 36.9-42 12.8 0 14.3 0.4 14.3 3.5 0 3.2-1.7 4.2-7.5 4.8-6.9 0.6-18.5 5.1-21.1 8.1-2.5 2.9-4 11.6-3.9 22.1l0.1 7 11.8 0.2c14.3 0.2 15.1 0.4 14.2 4.1-1.1 4.3-2.5 5.5-6 4.8-1.7-0.4-6.4-0.8-10.4-0.9-9.1-0.4-9.7 0.3-10.6 12.4-0.4 4.7-0.8 10.3-1 12.5-0.7 8.1-9.6 19.5-12.1 15.4zM594.5 776.8c-3.3-1.8-5.5-5.1-5.5-8.4-0.1-9.4 14.3-10.6 19.4-1.7 2.8 4.9-8.4 13-13.9 10.1zM235.4 708c-4.1-2.6-9.5-9.4-10.5-13.3-0.4-1.7-1.8-7.2-2.9-12.1-2.8-12-4-16.3-5.6-20.7-0.8-2.1-1.2-3.7-0.9-3.7 0.3 0 0-1.2-0.6-2.7-1.3-3.3-2.5-7.6-4.5-16.2-1.9-8.3-2.8-12-4.9-19.5-0.9-3.3-2.1-7.8-2.7-10-0.6-2.2-1.4-5.3-1.9-7-2.8-10.3-7.2-27.7-7.9-31.5-1.6-8.5-5.7-21.5-6.8-21.5-1.1 0-7.4 4.9-21.8 17-12.8 10.8-15.4 12.5-19 12.5-7.1 0-13.5-7.5-13.5-16 0-4.3 0.3-4.8 8.2-12.2 4.5-4.3 8.6-7.7 9-7.8 0.4 0 4.7-3.5 9.6-7.9 4.9-4.3 10.7-9.1 12.8-10.7 2.1-1.6 7-5.6 10.9-9 21.7-19.1 30.4-21.6 39.8-11.7 2.7 2.8 5.2 10.2 10.3 30.7 0.8 3.3 1.9 7.7 2.4 9.8 0.5 2.1 1.4 5.4 1.9 7.5 0.5 2.1 1.4 5.3 1.9 7.3 0.5 1.9 2.4 9.1 4.1 16 1.7 6.9 3.6 13.9 4.2 15.5 0.6 1.7 1.7 5.7 2.4 9 0.7 3.3 1.7 7.4 2.3 9 1.3 3.9 4 14.6 5.5 21.7 2.2 10.8 5.1 9.4 12.8-6.2 0.7-1.4 1.9-3.3 2.7-4.3 1.6-1.9 3.3-4.6 5.4-8.7 0.7-1.4 2.6-4.5 4.2-7 3.6-5.5 5.9-9.5 7.9-13.6 0.8-1.7 2.2-3.7 3.1-4.4C294.3 585.3 295 583.9 295 582.9c0-1 0.4-2.1 0.9-2.4 0.5-0.3 2.8-3.8 5.1-7.8 2.3-4 7-12 10.5-17.7 3.5-5.8 8-13.2 9.9-16.6 1.9-3.3 5.1-8.5 7.1-11.4 1.9-2.9 3.5-5.8 3.5-6.5 0-0.7 0.7-1.9 1.6-2.6 0.9-0.7 2.2-2.7 3-4.4 1.9-4 4.8-8.9 5.5-9.6 0.3-0.3 2-3.2 3.8-6.4 1.7-3.3 3.7-6.6 4.3-7.4 1.5-1.9 3.3-4.9 5.2-8.9 0.8-1.7 2-3.5 2.5-3.8 0.5-0.3 2.2-3 3.6-5.8 1.4-2.9 3.5-6.6 4.6-8.2 2.1-3.2 17.8-29.2 27.6-45.8 3.2-5.4 6.8-11.5 8-13.5 1.2-2 2.8-4.8 3.4-6.2 0.7-1.4 1.9-3.3 2.7-4.3 0.8-1 2-2.6 2.6-3.7 0.6-1.1 2.9-4.9 5.1-8.6 7.6-12.6 8.4-14 11.5-19.8 1.7-3.2 3.9-7 5-8.5 1-1.5 4.1-6.5 6.8-11.2 2.7-4.7 8.7-14.6 13.3-22 10.2-16.6 12.6-20.6 14.5-24.7 0.8-1.7 1.9-3.5 2.5-3.8 0.6-0.4 1.7-2.1 2.5-3.8 2.2-4.6 4.7-8.8 6.7-11.1 1-1.1 1.8-2.5 1.8-3.2 0-0.7 0.7-1.7 1.5-2.4 0.8-0.7 1.5-2 1.5-3 0-0.9 0.9-2.5 2-3.5 1.1-1 2-2.3 2-3 0-0.7 0.9-2 2-3 1.1-1 2-2.3 2-2.9 0-0.6 1.2-2.9 2.7-5.1 8.3-12.5 16.3-16.9 30.8-17 12.9-0.1 18 1.5 17 5.3-0.4 1.5-1.3 5.8-2.1 9.6-0.8 3.9-1.9 9-2.4 11.5-0.5 2.5-1 4.9-1 5.4 0 0.5-2.5 0.6-5.5 0.2-6.7-0.8-12.3 1.2-14.8 5.1-2.4 3.7-19 30.6-22.7 36.7-1.7 2.8-6.3 10.5-10.3 17.2-4 6.7-13.3 22.2-20.7 34.4-17.2 28.2-18.7 30.8-20.5 34.6-0.8 1.7-1.9 3.5-2.5 3.8-0.6 0.4-1.7 2.1-2.5 3.8-1.9 4.1-4.8 9-5.6 9.7C429.8 411.8 412 441.8 412 442.8c0 0.5-0.9 1.7-2 2.7-1.1 1-2 2.5-2 3.3 0 0.8-0.7 2.3-1.7 3.4-0.9 1-2.2 2.7-2.7 3.7-1.6 2.7-5.4 9.1-8.1 13.6-1.3 2.2-3 5.1-3.7 6.5-0.7 1.4-1.8 3.1-2.5 3.8-0.7 0.7-1.3 1.9-1.3 2.6 0 0.7-0.7 1.9-1.6 2.6-0.9 0.7-2.2 2.7-3 4.4-0.8 1.7-2.2 4.3-3.2 5.7-1.7 2.5-3.5 5.4-6 9.4-0.7 1.1-1.9 3.4-2.7 5.2-0.8 1.7-1.9 3.5-2.5 3.8-0.6 0.4-1.7 2.1-2.5 3.8-0.8 1.7-1.9 3.9-2.4 4.7-0.5 0.8-6.1 9.9-12.3 20.3-6.2 10.3-14.1 23.4-17.5 29-3.4 5.6-8.4 14.1-11.1 18.7-2.7 4.7-7.5 12.6-10.5 17.5-3.1 5-7.4 12.2-9.6 16-2.2 3.9-6.8 11.3-10 16.5-3.3 5.2-6.7 11.1-7.7 13-1 1.9-3.3 6-5.3 9-4 6.2-3.4 5.3-13.4 22-9.7 16.2-12 19.5-15.9 22.4-4.5 3.4-11.4 4.1-15.3 1.6zm246.7-50.1c-4.3-2.2-7.2-4.5-9.4-7.6-1.8-2.4-4.6-6.4-6.4-8.8C456.6 628.2 455.9 624.2 455.4 580c-0.6-45.8 0.7-41-10.4-41-9.9 0-9.8 0-10.2-6.5l-0.2-4 10-0.5 10-0.5 0.5-14c0.6-17.4 0-16.5 11.4-16.5 11.8 0 11.6-0.2 11.8 13.5 0.1 6.1 0.4 12.4 0.8 14.1l0.6 3 17.5 0.5 17.5 0.5 0.3 2.6c0.2 1.4-0.2 3.8-0.7 5.3L513 539l-16.5 0c-15.3 0-16.6 0.1-17.5 1.9-1.3 2.4-1.4 62.8-0.1 76.1 2.1 21.4 12.3 29.1 31.7 23.9 10.8-2.9 10.3-3.1 10.3 5.4 0 8.9-0.8 10.1-8.4 12.7-9.7 3.3-22.6 2.9-30.5-1.1zM586.5 659.2c-8.5-3.7-11.3-5.9-21.8-16.5-20.2-20.5-25.7-33.9-24.4-59.7 1.7-35.5 22.6-55.8 58.6-56.8 44.9-1.3 71.4 38.4 57 85.4-4.8 15.9-23.3 38.2-37.7 45.5-8.2 4.2-24.5 5.3-31.7 2.1zm27.7-20.4c15.6-8.3 21.4-20.2 22.5-45.8 1-23.6-1.7-34.8-10.8-44.6-18.3-19.9-50.3-13.5-59.8 12-6.4 17-4.6 48.6 3.6 63.6 8.7 16.1 29.3 22.9 44.5 14.7zm106.9 19.5c-5.3-2.6-8.9-6.1-21.6-20.4-12.1-13.6-16.7-26.9-16.9-49-0.3-31.6 14.7-55.2 39-61.6 6.1-1.6 22-1.9 25.5-0.5 1.3 0.5 4.3 1.4 6.8 2.1 3.6 1 6.1 2.9 12.8 9.6l8.3 8.4 0-35.5c0-19.5 0.3-36.2 0.6-37 0.9-2.3 20.9-2.3 21.8 0 0.8 2.1 0.5 163.6-0.3 173.4l-0.6 7.5-10 0-10 0-1-11.9c-1.1-13.1-1.8-14.3-5.3-9-4 6.2-14.2 18.3-17.6 20.9-8.4 6.4-22 7.6-31.5 2.9zm28.7-17.2C767.9 634.2 774.7 619 774.9 585c0.1-28.3-9.6-44.3-29.2-47.9-18.8-3.5-35.7 9.6-39.7 30.8-1.3 7-1.3 35.2 0.1 40.4 4.1 15.8 4.9 17.6 11.4 24.4 8.4 8.9 21.8 12.4 32.3 8.3zm116.6 16.4C855.8 652.6 836.6 633 830.9 621.5c-6-12.1-7.4-18.8-7.4-34.5-0.1-30.4 14-50.9 40.2-58.7 6.7-2 31.3-2.4 37.4-0.6 36.4 10.7 52.3 55.2 33.7 94.2-5.4 11.3-23.6 30.4-33.7 35.4-10.3 5.1-24.6 5.2-34.8 0.3zm30.7-18.6c16.7-8.5 23.6-24.7 23.1-54.5-0.3-18.4-3.3-27.6-11.9-36.7-16.4-17.5-44.1-13.9-56.5 7.4-9 15.4-8.3 52.3 1.5 69.5 8.8 15.5 28.6 22 43.8 14.3z" id="path3122" fill="#4da549"/><path d="m530.2 884.7c-2.1-2.5-2.5-6.7-0.8-7.4 2.1-0.8 4.5 2.2 4.5 5.9 0 2.9-1.9 3.7-3.8 1.5zM723 880.4c0-0.9 0.5-1.3 1-0.9 0.6 0.3 0.8 1 0.4 1.6C723.6 882.5 723 882.2 723 880.4zM350 874.5c0-2.5 0.4-3.5 1.3-3.2 0.7 0.2 1.3 1.7 1.3 3.3 0 1.6-0.6 3-1.2 3.3-0.8 0.3-1.2-0.8-1.2-3.2zm89.4 2.1c-0.8-2.1-0.1-4.9 1.3-5.4 0.8-0.3 1.3 0.6 1.3 2.6 0 3.3-1.7 5.1-2.6 2.8zm222.2-4.2c-1.2-3.2-0.5-6.6 1.9-9 3.1-3.1 4.5-2.4 4.5 2.5 0 5.1-5 10.2-6.4 6.5zM279.5 871c0.3-0.5 0.8-1 1.1-1 0.2 0 0.4 0.5 0.4 1 0 0.6-0.5 1-1.1 1-0.6 0-0.8-0.4-0.4-1zm164-7.2c-0.8-2.2-0.2-6.8 1-7 1.4-0.3 1.9 6.3 0.6 7.6-0.7 0.7-1.2 0.6-1.6-0.5zm-88.9-0.6c-0.3-0.6-0.1-1.3 0.5-1.7 1.5-1 2.5 0.4 1.2 1.6-0.7 0.7-1.3 0.7-1.7 0.1zm429.9-3.2c-0.7-2.4-0.1-3.4 1.5-2.5 1.3 0.8 1.4 4.5 0.1 4.5-0.5 0-1.2-0.9-1.6-2.1zM727 857.3c0-0.4-1-2.3-2.2-4.2C720.4 846.1 717 836.1 717 830.4c0-20.4-23.7-30.6-39.3-16.9-3 2.6-6.2 11.6-7.6 21-0.8 5.4-6.5 16.5-8.5 16.5-4.4 0-5-3.2-5.4-27.1l-0.3-22.9 2.7-1C666.2 797.1 673 799.3 673 804.9c0 5 0.8 5.6 3.9 2.8 13.5-12.5 33.6-13.5 45.3-2.3 8.1 7.8 12 20.9 9.9 33C731.5 841.8 731 846.8 731 849.4 731 854.3 729.7 858 728 858c-0.5 0-1-0.3-1-0.7zM212.9 855C205.5 851.1 204 848.1 204 837.4c0-17.4 10.6-31.7 27.9-37.5 6.1-2 25.6-2.7 28.9-1 1 0.5 4.8 2.1 8.5 3.6C282.6 807.9 292 822.7 292 838.2 292 848.2 291 851 287.5 851c-1.9 0-2.5 0.6-2.7 2.7-0.4 3.8-3.3 4.1-4.6 0.6-0.6-1.5-1.3-5.5-1.7-8.8-1.6-15.2-8.7-31-16-35.5-4.6-2.8-24.5-2.8-29.1 0-7.9 4.9-16.2 25.2-15.1 37 1 10.2 0.4 11.1-5.5 8zm307.6-1.5C519.7 851.6 519 849 519 847.7c0-1.3-0.7-4.1-1.6-6.2-1.3-3.2-1.7-10.3-2.2-44.1l-0.6-40.3 2.7-1c3.4-1.3 11.6-1.3 13.6-0.1 1.9 1.2 1.8 52.4-0.1 76.5-1.1 14.3-1.3 15.2-4 18.3-1.6 1.8-2.9 3.9-2.9 4.8 0 2.7-2.1 1.5-3.6-2zm73.6 0.6c-0.6-1.1-1.1-4.2-1.1-6.8 0-3.1-0.7-5.9-2-7.8-1.8-2.7-2-4.7-2-20.8L589 801l2.6-1c3.3-1.3 8.6-1.2 12 0l2.7 1-0.6 21.5c-0.7 24.1-0.6 23.5-5.4 29-4.3 4.9-4.7 5.1-6.1 2.6zM781.4 848.3c-1.8-2.8-1.9-4.3-1.1-16.7 0.9-14.3 7.2-22.9 22-30.7 10.5-5.5 31.9-3.2 36.4 4 0.9 1.5 2.8 4 4 5.6 1.4 1.7 2.3 4.2 2.3 6.2 0 7.3-3 8.9-4.9 2.5-1.8-5.9-11.8-12.4-17.6-11.5-11.3 1.7-13.9 2.5-17.7 5.1-7 4.9-8.2 7.4-8.6 17L795.8 838l7.4 0.1c4 0.1 13.3 0.2 20.6 0.3 14.1 0.2 15.8 0.8 14.3 5-1.1 2.9-8.6 4.6-19.6 4.5-15.2-0.2-29.9 0.7-32.2 2-2.9 1.5-2.8 1.6-4.9-1.6zm-434.3-1.1c-0.6-1.1-0.8-3.5-0.4-5.5 0.4-2.5-0.1-5.1-1.5-8.6C343.6 829.6 343 826.1 343 821.1c0-9-1.3-12.6-4.2-11.8-4.8 1.2-13-5.6-10.1-8.4 0.6-0.6 3.6-1 6.7-1.1 6.9-0.1 6.7 0.2 7.7-11.8 1.2-15.6 7.8-26.2 19.5-31.7 6.1-2.8 28.3-3.6 30.4-1 2.6 3.2-0.3 6.3-6.5 7.1-8 1-19.5 5.1-21.6 7.6-2.5 3.1-3.6 8.3-3.9 18.5-0.3 12.1-0.8 11.6 12.6 11.4 12.3-0.2 13.6 0.1 13.6 3.5 0 4.3-2.2 6-6.6 5.1-5.7-1.2-17.4-0.9-18.7 0.4-0.6 0.6-1.6 6.9-2.1 13.9-1.4 19.3-3.4 25.7-7.9 26.1-2.7 0.2-3.8-0.2-4.6-1.6zm89.3 0.7C435.4 846.2 433.9 834.4 433.2 822.5c-0.8-12.9-1-13.6-5.7-12.8-4.2 0.7-8.1-1.6-9.6-5.4-1.4-3.6-0.2-4.4 7.2-4.6L431.5 799.5 431.8 796c2.2-30.2 12.5-42 36.9-42 12.8 0 14.3 0.4 14.3 3.5 0 3.2-1.7 4.2-7.5 4.8-6.9 0.6-18.5 5.1-21.1 8.1-2.5 2.9-4 11.6-3.9 22.1l0.1 7 11.8 0.2c14.3 0.2 15.1 0.4 14.2 4.1-1.1 4.3-2.5 5.5-6 4.8-1.7-0.4-6.4-0.8-10.4-0.9-9.1-0.4-9.7 0.3-10.6 12.4-0.4 4.7-0.8 10.3-1 12.5-0.7 8.1-9.6 19.5-12.1 15.4zM594.5 776.8c-3.3-1.8-5.5-5.1-5.5-8.4-0.1-9.4 14.3-10.6 19.4-1.7 2.8 4.9-8.4 13-13.9 10.1zM482.1 657.9c-4.3-2.2-7.2-4.5-9.4-7.6-1.8-2.4-4.6-6.4-6.4-8.8C456.6 628.2 455.9 624.2 455.4 580c-0.6-45.8 0.7-41-10.4-41-9.9 0-9.8 0-10.2-6.5l-0.2-4 10-0.5 10-0.5 0.5-14c0.6-17.4 0-16.5 11.4-16.5 11.8 0 11.6-0.2 11.8 13.5 0.1 6.1 0.4 12.4 0.8 14.1l0.6 3 17.5 0.5 17.5 0.5 0.3 2.6c0.2 1.4-0.2 3.8-0.7 5.3L513 539l-16.5 0c-15.3 0-16.6 0.1-17.5 1.9-1.3 2.4-1.4 62.8-0.1 76.1 2.1 21.4 12.3 29.1 31.7 23.9 10.8-2.9 10.3-3.1 10.3 5.4 0 8.9-0.8 10.1-8.4 12.7-9.7 3.3-22.6 2.9-30.5-1.1zM586.5 659.2c-8.5-3.7-11.3-5.9-21.8-16.5-20.2-20.5-25.7-33.9-24.4-59.7 1.7-35.5 22.6-55.8 58.6-56.8 44.9-1.3 71.4 38.4 57 85.4-4.8 15.9-23.3 38.2-37.7 45.5-8.2 4.2-24.5 5.3-31.7 2.1zm27.7-20.4c15.6-8.3 21.4-20.2 22.5-45.8 1-23.6-1.7-34.8-10.8-44.6-18.3-19.9-50.3-13.5-59.8 12-6.4 17-4.6 48.6 3.6 63.6 8.7 16.1 29.3 22.9 44.5 14.7zm106.9 19.5c-5.3-2.6-8.9-6.1-21.6-20.4-12.1-13.6-16.7-26.9-16.9-49-0.3-31.6 14.7-55.2 39-61.6 6.1-1.6 22-1.9 25.5-0.5 1.3 0.5 4.3 1.4 6.8 2.1 3.6 1 6.1 2.9 12.8 9.6l8.3 8.4 0-35.5c0-19.5 0.3-36.2 0.6-37 0.9-2.3 20.9-2.3 21.8 0 0.8 2.1 0.5 163.6-0.3 173.4l-0.6 7.5-10 0-10 0-1-11.9c-1.1-13.1-1.8-14.3-5.3-9-4 6.2-14.2 18.3-17.6 20.9-8.4 6.4-22 7.6-31.5 2.9zm28.7-17.2C767.9 634.2 774.7 619 774.9 585c0.1-28.3-9.6-44.3-29.2-47.9-18.8-3.5-35.7 9.6-39.7 30.8-1.3 7-1.3 35.2 0.1 40.4 4.1 15.8 4.9 17.6 11.4 24.4 8.4 8.9 21.8 12.4 32.3 8.3zm116.6 16.4C855.8 652.6 836.6 633 830.9 621.5c-6-12.1-7.4-18.8-7.4-34.5-0.1-30.4 14-50.9 40.2-58.7 6.7-2 31.3-2.4 37.4-0.6 36.4 10.7 52.3 55.2 33.7 94.2-5.4 11.3-23.6 30.4-33.7 35.4-10.3 5.1-24.6 5.2-34.8 0.3zm30.7-18.6c16.7-8.5 23.6-24.7 23.1-54.5-0.3-18.4-3.3-27.6-11.9-36.7-16.4-17.5-44.1-13.9-56.5 7.4-9 15.4-8.3 52.3 1.5 69.5 8.8 15.5 28.6 22 43.8 14.3z" id="path3120" fill="#636156"/><path d="m209.3 847.3c-8.3-10.9-0.4-34.3 14.2-42.1 8.1-4.3 22.3-6.6 32.8-5.1C275.4 802.6 290 818.1 290 835.5c0 8 0.1 7.9-5.1 8.8-3.5 0.6-3.7 0.5-4.6-3.1-5.6-21-6.8-24.1-12.9-32.5-4.1-5.6-6.8-6.6-18.1-6.7-4.6 0-9.1-0.3-10-0.6-1-0.3-3.7 0.9-6.4 3C225.1 810.1 215 834.3 215 846.9c0 5.2-1.9 5.4-5.7 0.4zm384.8-6.6-3.2-6.3 0.3-16.5L591.5 801.5l6.2-0.3 6.2-0.3 0.7 3.5c0.4 1.9 0.4 7 0 11.3-0.4 4.3-0.8 11.1-0.9 15.3-0.3 9.7-1.3 13.8-3.6 15-2.6 1.4-2.4 1.6-5.9-5.3zM723.2 844.8c-2.3-2.9-4.2-9.4-4.3-14.6-0.1-7.5-1.7-11.7-7.8-19.9-4.9-6.6-5.4-7-10.6-8-3-0.6-6.2-0.8-7-0.5-0.8 0.3-1.5 0.1-1.5-0.4 0-1.7 16-2.4 20.3-0.9 3.9 1.4 11.3 7.7 14.1 11.9 6.7 10.2 3.6 40.9-3.2 32.5zm-201.3-1c-3.9-3.1-4.1-4.9-4.7-46.4L516.7 757l7.2 0 7.2 0-0.4 33.3c-0.6 46.8-2.5 58.3-8.7 53.5zM350.7 843.3C350.3 843 350 841.8 350 840.8c0-1.1-1.3-5-3-8.8-2.6-6-3-8-3-16.2 0-6.9-0.4-10-1.6-11.6-1.4-2-1.4-2.4 0-3.8C343.5 799.4 344 797 344 793c0-23.2 14.2-39.3 32.9-37.4l6.4 0.6-7.2 2.8c-9.9 3.8-12 5.4-14.3 10.6-2.8 6.3-3.9 28.2-1.5 30.6 1.4 1.4 1.4 2 0.2 4.5-0.8 1.6-1.9 8.7-2.6 15.8-1.7 18.7-4.1 26.1-7.3 22.8zM437.6 841.8c-2.3-8.6-3.1-13.9-3.1-22.7 0-7.7-0.4-11.3-1.6-13.6-1-1.9-1.3-3.7-0.8-4.6 0.5-0.8 1.3-5.5 1.8-10.4 2.6-22.7 13.5-35.4 30.3-35.4 9 0 8.3 1.9-2.1 5.6-6.2 2.2-10.5 6.6-12.1 12.1-1.4 5.1-1.4 26.6 0 28 0.8 0.8 0.8 1.7 0 3.1-0.6 1.1-1.6 6.9-2.2 12.9-1.9 19-2.1 19.7-4.6 23.1-2.6 3.4-5.1 4.3-5.7 2zm221.4-0.8c-1.2-2.2-1.6-37.2-0.5-39 0.3-0.5 3.3-1 6.5-1l5.9 0 0.8 3.8c1.3 6.5 0.7 15.5-1.6 21.3-1.2 3-2.1 7.2-2.1 9.3 0 6.4-6.5 10.5-9 5.7zm122.9 0.8c-0.4-4.5 0.5-17.5 1.2-19.6 5.3-13.9 22.3-24.6 35.8-22.5l4.6 0.7-3 1.3c-1.6 0.7-4.6 1.3-6.6 1.3-4.8 0.1-14.3 7-17.2 12.5-2.3 4.4-3.5 21.8-1.6 24.1 0.6 0.7 2.8 1 5.9 0.7 5-0.5 8.9 0.3 7.7 1.5-1.3 1.3-26.6 1.4-26.7 0.1zm39.3 0.5c-2.4-0.2-4-0.8-3.7-1.3 0.7-1.2 13.5-1.2 13.5-0.1 0 0.8-3.9 2.3-5 1.9-0.3-0.1-2.4-0.3-4.8-0.5zm8.9-39.3c-2.4-1.6-3.8-3-3-2.9 2.2 0.1 8.2 3.3 8.7 4.7 0.6 1.9-0.9 1.5-5.7-1.8zm-493.8-0.7c1-0.3 2.3-0.2 3 0 0.7 0.3-0.1 0.5-1.8 0.5-1.6 0-2.2-0.2-1.2-0.5zm45.5 0c0.7-0.3 1.6-0.3 1.9 0.1 0.3 0.3-0.3 0.6-1.3 0.5-1.2 0-1.4-0.3-0.6-0.6zm42.5 0c1-0.3 2.3-0.2 3 0 0.7 0.3-0.1 0.5-1.8 0.5-1.6 0-2.2-0.2-1.2-0.5zM593.5 770.6C589 766.1 591.3 762 598.4 762c6.7 0 10.2 5.3 5.3 8.4-4.5 2.8-7.6 2.9-10.3 0.2zM488.3 658.4c-3.6-1.8-6.9-5.7-10.1-12-1.1-2.3-3.2-4.8-4.5-5.7-6.2-4-12.3-12.2-15-20.2-0.6-1.8-1.3-19.8-1.6-43.5-0.7-48.6 0.3-45-12.1-45C439.7 532 436 531.6 436 531c0-0.6 3.6-1 8.9-1C457.2 530 457 530.3 457 512.9L457 499l9.4 0 9.4 0 0.7 14C477.4 531.2 476 530 496.6 530 506.9 530 513 530.4 513 531c0 0.6-6.3 1-17 1l-17 0-1.2 2.8c-1.8 4-1.7 80.8 0.2 87.8 2.3 8.7 3.3 10.9 7 14.8 6.3 6.7 14.4 8.3 26.1 5.2 8.7-2.3 9.1-2.2 8.4 2.8-1.7 10.7-20.1 18.5-31.1 13.1zm101.6-0.6c-3.3-2.1-7.5-6.7-12.1-13.2-1-1.4-3.2-3.3-5-4.2-44.1-22.6-41.3-91.8 4.4-109.5 6.7-2.6 30.4-3.8 39-1.9 48.2 10.3 57.5 85.3 13.7 110-4.1 2.3-6.8 4.8-9.5 8.8-6.4 9.4-10.1 11.7-19.1 12.1-6.6 0.3-8.2 0-11.3-2zM612.8 641.3c6.3-3.1 16.3-12.5 19.1-18.1 8.8-17.5 9.1-53.3 0.7-71.7-12.8-27.9-51.1-29-64.9-1.8-7.3 14.4-9 49.7-3.2 66.2 7.9 22.3 30.3 34.1 48.3 25.4zm114.6 17.8c-2.7-1.1-7.9-7.1-10.4-12-1.3-2.5-4.1-5.4-7.8-7.9-31.4-21.3-34.9-72-6.9-99.4 8.6-8.4 15.1-10.9 29.4-11.5 14.7-0.6 20.3 0.9 6.8 1.8-17.5 1.1-28.1 11.2-33.2 31.7-2.5 9.8-2.4 39.8 0.2 50.3 5.4 22.7 18.2 33 39 31.7l9.5-0.6-2.4 4.8c-5.3 10.4-15 14.9-24.1 11.2zM873.5 658.2c-3.7-2.3-10.2-9.4-11.7-12.8-0.6-1.3-3.6-3.9-6.7-5.6-45.3-25.6-39.2-97.7 9.4-110.3 15.1-3.9 37.5-1.6 49.4 5.2 36.8 20.9 35.8 84.5-1.7 104.8-3.7 2-6.4 4.5-9 8.3-6.4 9.3-10 11.6-19 12-6.2 0.2-8.3-0.1-10.7-1.6zm22.9-17.3c17-8.4 25.5-26.5 25.5-54 0-37.2-14.8-57.8-40.8-56.8-27.4 1.1-41.1 28.1-36.3 71.3 3.6 32 28.3 50.9 51.6 39.5zM777.5 646.5c-0.2-1.1-0.7-6.2-1-11.3-0.8-13.1-1.1-13.4-5.7-8.1l-3.8 4.4 2-4.2c5.4-11.5 7.6-24.3 7.3-43.1-0.4-28.4-8.9-47.4-23.7-52.6-2.3-0.8-3.4-1.5-2.4-1.6 4.4-0.2 16.7 9.4 22.3 17.4 4.2 6 4.4 3.8 4.4-36L777 474l9.5 0 9.5 0-0.1 84.3c-0.1 46.3-0.4 85.5-0.7 87.1-0.6 2.9-0.6 2.9-8.9 3-7.5 0.1-8.3-0.1-8.7-1.9z" id="path3118" fill="#0d0d0b"/></g></svg>